<?xml version="1.0" encoding="utf-8" standalone="no"?>
<!DOCTYPE svg PUBLIC "-//W3C//DTD SVG 1.1//EN"
  "http://www.w3.org/Graphics/SVG/1.1/DTD/svg11.dtd">
<svg xmlns:xlink="http://www.w3.org/1999/xlink" width="773.820292pt" height="439.510694pt" viewBox="0 0 773.820292 439.510694" xmlns="http://www.w3.org/2000/svg" version="1.1">
 <title>02-training-dynamics</title>
 <metadata>
  <rdf:RDF xmlns:dc="http://purl.org/dc/elements/1.1/" xmlns:cc="http://creativecommons.org/ns#" xmlns:rdf="http://www.w3.org/1999/02/22-rdf-syntax-ns#">
   <cc:Work>
    <dc:type rdf:resource="http://purl.org/dc/dcmitype/StillImage"/>
    <dc:title>02-training-dynamics</dc:title>
    <dc:format>image/svg+xml</dc:format>
    <dc:creator>
     <cc:Agent>
      <dc:title>sable-ir</dc:title>
     </cc:Agent>
    </dc:creator>
   </cc:Work>
  </rdf:RDF>
 </metadata>
 <defs>
  <style type="text/css">*{stroke-linejoin: round; stroke-linecap: butt}</style>
 </defs>
 <g id="figure_1">
  <g id="patch_1">
   <path d="M 0 439.510694 
L 773.820292 439.510694 
L 773.820292 0 
L 0 0 
z
" style="fill: #ffffff"/>
  </g>
  <g id="axes_1">
   <g id="patch_2">
    <path d="M 56.039385 370.913094 
L 728.716308 370.913094 
L 728.716308 23.837813 
L 56.039385 23.837813 
z
" style="fill: #ffffff"/>
   </g>
   <g id="matplotlib.axis_1">
    <g id="xtick_1">
     <g id="line2d_1">
      <path d="M 75.077411 370.913094 
L 75.077411 23.837813 
" clip-path="url(#pb9766e3c45)" style="fill: none; stroke: #b0b0b0; stroke-opacity: 0.22; stroke-width: 0.8; stroke-linecap: square"/>
     </g>
     <g id="line2d_2">
      <defs>
       <path id="m4d748bc38c" d="M 0 0 
L 0 3.5 
" style="stroke: #000000; stroke-width: 0.8"/>
      </defs>
      <g>
       <use xlink:href="#m4d748bc38c" x="75.077411" y="370.913094" style="stroke: #000000; stroke-width: 0.8"/>
      </g>
     </g>
     <g id="text_1">
      <!-- 0 -->
      <g transform="translate(71.896161 385.51075) scale(0.1 -0.1)">
       <defs>
        <path id="DejaVuSans-13" d="M 2034 4250 
Q 1547 4250 1301 3770 
Q 1056 3291 1056 2328 
Q 1056 1369 1301 889 
Q 1547 409 2034 409 
Q 2525 409 2770 889 
Q 3016 1369 3016 2328 
Q 3016 3291 2770 3770 
Q 2525 4250 2034 4250 
z
M 2034 4750 
Q 2819 4750 3233 4129 
Q 3647 3509 3647 2328 
Q 3647 1150 3233 529 
Q 2819 -91 2034 -91 
Q 1250 -91 836 529 
Q 422 1150 422 2328 
Q 422 3509 836 4129 
Q 1250 4750 2034 4750 
z
" transform="scale(0.015625)"/>
       </defs>
       <use xlink:href="#DejaVuSans-13"/>
      </g>
     </g>
    </g>
    <g id="xtick_2">
     <g id="line2d_3">
      <path d="M 190.459387 370.913094 
L 190.459387 23.837813 
" clip-path="url(#pb9766e3c45)" style="fill: none; stroke: #b0b0b0; stroke-opacity: 0.22; stroke-width: 0.8; stroke-linecap: square"/>
     </g>
     <g id="line2d_4">
      <g>
       <use xlink:href="#m4d748bc38c" x="190.459387" y="370.913094" style="stroke: #000000; stroke-width: 0.8"/>
      </g>
     </g>
     <g id="text_2">
      <!-- 10 -->
      <g transform="translate(184.096887 385.51075) scale(0.1 -0.1)">
       <defs>
        <path id="DejaVuSans-14" d="M 794 531 
L 1825 531 
L 1825 4091 
L 703 3866 
L 703 4441 
L 1819 4666 
L 2450 4666 
L 2450 531 
L 3481 531 
L 3481 0 
L 794 0 
L 794 531 
z
" transform="scale(0.015625)"/>
       </defs>
       <use xlink:href="#DejaVuSans-14"/>
       <use xlink:href="#DejaVuSans-13" transform="translate(63.625 0)"/>
      </g>
     </g>
    </g>
    <g id="xtick_3">
     <g id="line2d_5">
      <path d="M 305.841364 370.913094 
L 305.841364 23.837813 
" clip-path="url(#pb9766e3c45)" style="fill: none; stroke: #b0b0b0; stroke-opacity: 0.22; stroke-width: 0.8; stroke-linecap: square"/>
     </g>
     <g id="line2d_6">
      <g>
       <use xlink:href="#m4d748bc38c" x="305.841364" y="370.913094" style="stroke: #000000; stroke-width: 0.8"/>
      </g>
     </g>
     <g id="text_3">
      <!-- 20 -->
      <g transform="translate(299.478864 385.51075) scale(0.1 -0.1)">
       <defs>
        <path id="DejaVuSans-15" d="M 1228 531 
L 3431 531 
L 3431 0 
L 469 0 
L 469 531 
Q 828 903 1448 1529 
Q 2069 2156 2228 2338 
Q 2531 2678 2651 2914 
Q 2772 3150 2772 3378 
Q 2772 3750 2511 3984 
Q 2250 4219 1831 4219 
Q 1534 4219 1204 4116 
Q 875 4013 500 3803 
L 500 4441 
Q 881 4594 1212 4672 
Q 1544 4750 1819 4750 
Q 2544 4750 2975 4387 
Q 3406 4025 3406 3419 
Q 3406 3131 3298 2873 
Q 3191 2616 2906 2266 
Q 2828 2175 2409 1742 
Q 1991 1309 1228 531 
z
" transform="scale(0.015625)"/>
       </defs>
       <use xlink:href="#DejaVuSans-15"/>
       <use xlink:href="#DejaVuSans-13" transform="translate(63.625 0)"/>
      </g>
     </g>
    </g>
    <g id="xtick_4">
     <g id="line2d_7">
      <path d="M 421.22334 370.913094 
L 421.22334 23.837813 
" clip-path="url(#pb9766e3c45)" style="fill: none; stroke: #b0b0b0; stroke-opacity: 0.22; stroke-width: 0.8; stroke-linecap: square"/>
     </g>
     <g id="line2d_8">
      <g>
       <use xlink:href="#m4d748bc38c" x="421.22334" y="370.913094" style="stroke: #000000; stroke-width: 0.8"/>
      </g>
     </g>
     <g id="text_4">
      <!-- 30 -->
      <g transform="translate(414.86084 385.51075) scale(0.1 -0.1)">
       <defs>
        <path id="DejaVuSans-16" d="M 2597 2516 
Q 3050 2419 3304 2112 
Q 3559 1806 3559 1356 
Q 3559 666 3084 287 
Q 2609 -91 1734 -91 
Q 1441 -91 1130 -33 
Q 819 25 488 141 
L 488 750 
Q 750 597 1062 519 
Q 1375 441 1716 441 
Q 2309 441 2620 675 
Q 2931 909 2931 1356 
Q 2931 1769 2642 2001 
Q 2353 2234 1838 2234 
L 1294 2234 
L 1294 2753 
L 1863 2753 
Q 2328 2753 2575 2939 
Q 2822 3125 2822 3475 
Q 2822 3834 2567 4026 
Q 2313 4219 1838 4219 
Q 1578 4219 1281 4162 
Q 984 4106 628 3988 
L 628 4550 
Q 988 4650 1302 4700 
Q 1616 4750 1894 4750 
Q 2613 4750 3031 4423 
Q 3450 4097 3450 3541 
Q 3450 3153 3228 2886 
Q 3006 2619 2597 2516 
z
" transform="scale(0.015625)"/>
       </defs>
       <use xlink:href="#DejaVuSans-16"/>
       <use xlink:href="#DejaVuSans-13" transform="translate(63.625 0)"/>
      </g>
     </g>
    </g>
    <g id="xtick_5">
     <g id="line2d_9">
      <path d="M 536.605317 370.913094 
L 536.605317 23.837813 
" clip-path="url(#pb9766e3c45)" style="fill: none; stroke: #b0b0b0; stroke-opacity: 0.22; stroke-width: 0.8; stroke-linecap: square"/>
     </g>
     <g id="line2d_10">
      <g>
       <use xlink:href="#m4d748bc38c" x="536.605317" y="370.913094" style="stroke: #000000; stroke-width: 0.8"/>
      </g>
     </g>
     <g id="text_5">
      <!-- 40 -->
      <g transform="translate(530.242817 385.51075) scale(0.1 -0.1)">
       <defs>
        <path id="DejaVuSans-17" d="M 2419 4116 
L 825 1625 
L 2419 1625 
L 2419 4116 
z
M 2253 4666 
L 3047 4666 
L 3047 1625 
L 3713 1625 
L 3713 1100 
L 3047 1100 
L 3047 0 
L 2419 0 
L 2419 1100 
L 313 1100 
L 313 1709 
L 2253 4666 
z
" transform="scale(0.015625)"/>
       </defs>
       <use xlink:href="#DejaVuSans-17"/>
       <use xlink:href="#DejaVuSans-13" transform="translate(63.625 0)"/>
      </g>
     </g>
    </g>
    <g id="xtick_6">
     <g id="line2d_11">
      <path d="M 651.987293 370.913094 
L 651.987293 23.837813 
" clip-path="url(#pb9766e3c45)" style="fill: none; stroke: #b0b0b0; stroke-opacity: 0.22; stroke-width: 0.8; stroke-linecap: square"/>
     </g>
     <g id="line2d_12">
      <g>
       <use xlink:href="#m4d748bc38c" x="651.987293" y="370.913094" style="stroke: #000000; stroke-width: 0.8"/>
      </g>
     </g>
     <g id="text_6">
      <!-- 50 -->
      <g transform="translate(645.624793 385.51075) scale(0.1 -0.1)">
       <defs>
        <path id="DejaVuSans-18" d="M 691 4666 
L 3169 4666 
L 3169 4134 
L 1269 4134 
L 1269 2991 
Q 1406 3038 1543 3061 
Q 1681 3084 1819 3084 
Q 2600 3084 3056 2656 
Q 3513 2228 3513 1497 
Q 3513 744 3044 326 
Q 2575 -91 1722 -91 
Q 1428 -91 1123 -41 
Q 819 9 494 109 
L 494 744 
Q 775 591 1075 516 
Q 1375 441 1709 441 
Q 2250 441 2565 725 
Q 2881 1009 2881 1497 
Q 2881 1984 2565 2268 
Q 2250 2553 1709 2553 
Q 1456 2553 1204 2497 
Q 953 2441 691 2322 
L 691 4666 
z
" transform="scale(0.015625)"/>
       </defs>
       <use xlink:href="#DejaVuSans-18"/>
       <use xlink:href="#DejaVuSans-13" transform="translate(63.625 0)"/>
      </g>
     </g>
    </g>
    <g id="text_7">
     <!-- Optimizer step -->
     <g transform="translate(351.81019 400.271375) scale(0.11 -0.11)">
      <defs>
       <path id="DejaVuSans-32" d="M 2522 4238 
Q 1834 4238 1429 3725 
Q 1025 3213 1025 2328 
Q 1025 1447 1429 934 
Q 1834 422 2522 422 
Q 3209 422 3611 934 
Q 4013 1447 4013 2328 
Q 4013 3213 3611 3725 
Q 3209 4238 2522 4238 
z
M 2522 4750 
Q 3503 4750 4090 4092 
Q 4678 3434 4678 2328 
Q 4678 1225 4090 567 
Q 3503 -91 2522 -91 
Q 1538 -91 948 565 
Q 359 1222 359 2328 
Q 359 3434 948 4092 
Q 1538 4750 2522 4750 
z
" transform="scale(0.015625)"/>
       <path id="DejaVuSans-53" d="M 1159 525 
L 1159 -1331 
L 581 -1331 
L 581 3500 
L 1159 3500 
L 1159 2969 
Q 1341 3281 1617 3432 
Q 1894 3584 2278 3584 
Q 2916 3584 3314 3078 
Q 3713 2572 3713 1747 
Q 3713 922 3314 415 
Q 2916 -91 2278 -91 
Q 1894 -91 1617 61 
Q 1341 213 1159 525 
z
M 3116 1747 
Q 3116 2381 2855 2742 
Q 2594 3103 2138 3103 
Q 1681 3103 1420 2742 
Q 1159 2381 1159 1747 
Q 1159 1113 1420 752 
Q 1681 391 2138 391 
Q 2594 391 2855 752 
Q 3116 1113 3116 1747 
z
" transform="scale(0.015625)"/>
       <path id="DejaVuSans-57" d="M 1172 4494 
L 1172 3500 
L 2356 3500 
L 2356 3053 
L 1172 3053 
L 1172 1153 
Q 1172 725 1289 603 
Q 1406 481 1766 481 
L 2356 481 
L 2356 0 
L 1766 0 
Q 1100 0 847 248 
Q 594 497 594 1153 
L 594 3053 
L 172 3053 
L 172 3500 
L 594 3500 
L 594 4494 
L 1172 4494 
z
" transform="scale(0.015625)"/>
       <path id="DejaVuSans-4c" d="M 603 3500 
L 1178 3500 
L 1178 0 
L 603 0 
L 603 3500 
z
M 603 4863 
L 1178 4863 
L 1178 4134 
L 603 4134 
L 603 4863 
z
" transform="scale(0.015625)"/>
       <path id="DejaVuSans-50" d="M 3328 2828 
Q 3544 3216 3844 3400 
Q 4144 3584 4550 3584 
Q 5097 3584 5394 3201 
Q 5691 2819 5691 2113 
L 5691 0 
L 5113 0 
L 5113 2094 
Q 5113 2597 4934 2840 
Q 4756 3084 4391 3084 
Q 3944 3084 3684 2787 
Q 3425 2491 3425 1978 
L 3425 0 
L 2847 0 
L 2847 2094 
Q 2847 2600 2669 2842 
Q 2491 3084 2119 3084 
Q 1678 3084 1418 2786 
Q 1159 2488 1159 1978 
L 1159 0 
L 581 0 
L 581 3500 
L 1159 3500 
L 1159 2956 
Q 1356 3278 1631 3431 
Q 1906 3584 2284 3584 
Q 2666 3584 2933 3390 
Q 3200 3197 3328 2828 
z
" transform="scale(0.015625)"/>
       <path id="DejaVuSans-5d" d="M 353 3500 
L 3084 3500 
L 3084 2975 
L 922 459 
L 3084 459 
L 3084 0 
L 275 0 
L 275 525 
L 2438 3041 
L 353 3041 
L 353 3500 
z
" transform="scale(0.015625)"/>
       <path id="DejaVuSans-48" d="M 3597 1894 
L 3597 1613 
L 953 1613 
Q 991 1019 1311 708 
Q 1631 397 2203 397 
Q 2534 397 2845 478 
Q 3156 559 3463 722 
L 3463 178 
Q 3153 47 2828 -22 
Q 2503 -91 2169 -91 
Q 1331 -91 842 396 
Q 353 884 353 1716 
Q 353 2575 817 3079 
Q 1281 3584 2069 3584 
Q 2775 3584 3186 3129 
Q 3597 2675 3597 1894 
z
M 3022 2063 
Q 3016 2534 2758 2815 
Q 2500 3097 2075 3097 
Q 1594 3097 1305 2825 
Q 1016 2553 972 2059 
L 3022 2063 
z
" transform="scale(0.015625)"/>
       <path id="DejaVuSans-55" d="M 2631 2963 
Q 2534 3019 2420 3045 
Q 2306 3072 2169 3072 
Q 1681 3072 1420 2755 
Q 1159 2438 1159 1844 
L 1159 0 
L 581 0 
L 581 3500 
L 1159 3500 
L 1159 2956 
Q 1341 3275 1631 3429 
Q 1922 3584 2338 3584 
Q 2397 3584 2469 3576 
Q 2541 3569 2628 3553 
L 2631 2963 
z
" transform="scale(0.015625)"/>
       <path id="DejaVuSans-3" transform="scale(0.015625)"/>
       <path id="DejaVuSans-56" d="M 2834 3397 
L 2834 2853 
Q 2591 2978 2328 3040 
Q 2066 3103 1784 3103 
Q 1356 3103 1142 2972 
Q 928 2841 928 2578 
Q 928 2378 1081 2264 
Q 1234 2150 1697 2047 
L 1894 2003 
Q 2506 1872 2764 1633 
Q 3022 1394 3022 966 
Q 3022 478 2636 193 
Q 2250 -91 1575 -91 
Q 1294 -91 989 -36 
Q 684 19 347 128 
L 347 722 
Q 666 556 975 473 
Q 1284 391 1588 391 
Q 1994 391 2212 530 
Q 2431 669 2431 922 
Q 2431 1156 2273 1281 
Q 2116 1406 1581 1522 
L 1381 1569 
Q 847 1681 609 1914 
Q 372 2147 372 2553 
Q 372 3047 722 3315 
Q 1072 3584 1716 3584 
Q 2034 3584 2315 3537 
Q 2597 3491 2834 3397 
z
" transform="scale(0.015625)"/>
      </defs>
      <use xlink:href="#DejaVuSans-32"/>
      <use xlink:href="#DejaVuSans-53" transform="translate(78.71875 0)"/>
      <use xlink:href="#DejaVuSans-57" transform="translate(142.203125 0)"/>
      <use xlink:href="#DejaVuSans-4c" transform="translate(181.40625 0)"/>
      <use xlink:href="#DejaVuSans-50" transform="translate(209.1875 0)"/>
      <use xlink:href="#DejaVuSans-4c" transform="translate(306.59375 0)"/>
      <use xlink:href="#DejaVuSans-5d" transform="translate(334.375 0)"/>
      <use xlink:href="#DejaVuSans-48" transform="translate(386.859375 0)"/>
      <use xlink:href="#DejaVuSans-55" transform="translate(448.390625 0)"/>
      <use xlink:href="#DejaVuSans-3" transform="translate(489.5 0)"/>
      <use xlink:href="#DejaVuSans-56" transform="translate(521.28125 0)"/>
      <use xlink:href="#DejaVuSans-57" transform="translate(573.375 0)"/>
      <use xlink:href="#DejaVuSans-48" transform="translate(612.578125 0)"/>
      <use xlink:href="#DejaVuSans-53" transform="translate(674.109375 0)"/>
     </g>
    </g>
   </g>
   <g id="matplotlib.axis_2">
    <g id="ytick_1">
     <g id="line2d_13">
      <path d="M 56.039385 360.517226 
L 728.716308 360.517226 
" clip-path="url(#pb9766e3c45)" style="fill: none; stroke: #b0b0b0; stroke-opacity: 0.22; stroke-width: 0.8; stroke-linecap: square"/>
     </g>
     <g id="line2d_14">
      <defs>
       <path id="m4d4188efcd" d="M 0 0 
L -3.5 0 
" style="stroke: #000000; stroke-width: 0.8"/>
      </defs>
      <g>
       <use xlink:href="#m4d4188efcd" x="56.039385" y="360.517226" style="stroke: #000000; stroke-width: 0.8"/>
      </g>
     </g>
     <g id="text_8">
      <!-- $\mathdefault{10^{-4}}$ -->
      <g style="fill: #4e79a7" transform="translate(25.539385 365.167226) scale(0.1 -0.1)">
       <defs>
        <path id="DejaVuSans-c9c" d="M 678 2272 
L 4684 2272 
L 4684 1741 
L 678 1741 
L 678 2272 
z
" transform="scale(0.015625)"/>
       </defs>
       <use xlink:href="#DejaVuSans-14" transform="translate(0 0.665625)"/>
       <use xlink:href="#DejaVuSans-13" transform="translate(63.623047 0.665625)"/>
       <use xlink:href="#DejaVuSans-c9c" transform="translate(128.203125 41.965625) scale(0.7)"/>
       <use xlink:href="#DejaVuSans-17" transform="translate(186.855469 41.965625) scale(0.7)"/>
      </g>
     </g>
    </g>
    <g id="ytick_2">
     <g id="line2d_15">
      <path d="M 56.039385 286.606096 
L 728.716308 286.606096 
" clip-path="url(#pb9766e3c45)" style="fill: none; stroke: #b0b0b0; stroke-opacity: 0.22; stroke-width: 0.8; stroke-linecap: square"/>
     </g>
     <g id="line2d_16">
      <g>
       <use xlink:href="#m4d4188efcd" x="56.039385" y="286.606096" style="stroke: #000000; stroke-width: 0.8"/>
      </g>
     </g>
     <g id="text_9">
      <!-- $\mathdefault{10^{-3}}$ -->
      <g style="fill: #4e79a7" transform="translate(25.539385 291.306096) scale(0.1 -0.1)">
       <use xlink:href="#DejaVuSans-14" transform="translate(0 0.746875)"/>
       <use xlink:href="#DejaVuSans-13" transform="translate(63.623047 0.746875)"/>
       <use xlink:href="#DejaVuSans-c9c" transform="translate(128.203125 42.046875) scale(0.7)"/>
       <use xlink:href="#DejaVuSans-16" transform="translate(186.855469 42.046875) scale(0.7)"/>
      </g>
     </g>
    </g>
    <g id="ytick_3">
     <g id="line2d_17">
      <path d="M 56.039385 212.694966 
L 728.716308 212.694966 
" clip-path="url(#pb9766e3c45)" style="fill: none; stroke: #b0b0b0; stroke-opacity: 0.22; stroke-width: 0.8; stroke-linecap: square"/>
     </g>
     <g id="line2d_18">
      <g>
       <use xlink:href="#m4d4188efcd" x="56.039385" y="212.694966" style="stroke: #000000; stroke-width: 0.8"/>
      </g>
     </g>
     <g id="text_10">
      <!-- $\mathdefault{10^{-2}}$ -->
      <g style="fill: #4e79a7" transform="translate(25.539385 217.394966) scale(0.1 -0.1)">
       <use xlink:href="#DejaVuSans-14" transform="translate(0 0.746875)"/>
       <use xlink:href="#DejaVuSans-13" transform="translate(63.623047 0.746875)"/>
       <use xlink:href="#DejaVuSans-c9c" transform="translate(128.203125 42.046875) scale(0.7)"/>
       <use xlink:href="#DejaVuSans-15" transform="translate(186.855469 42.046875) scale(0.7)"/>
      </g>
     </g>
    </g>
    <g id="ytick_4">
     <g id="line2d_19">
      <path d="M 56.039385 138.783836 
L 728.716308 138.783836 
" clip-path="url(#pb9766e3c45)" style="fill: none; stroke: #b0b0b0; stroke-opacity: 0.22; stroke-width: 0.8; stroke-linecap: square"/>
     </g>
     <g id="line2d_20">
      <g>
       <use xlink:href="#m4d4188efcd" x="56.039385" y="138.783836" style="stroke: #000000; stroke-width: 0.8"/>
      </g>
     </g>
     <g id="text_11">
      <!-- $\mathdefault{10^{-1}}$ -->
      <g style="fill: #4e79a7" transform="translate(25.539385 143.433836) scale(0.1 -0.1)">
       <use xlink:href="#DejaVuSans-14" transform="translate(0 0.665625)"/>
       <use xlink:href="#DejaVuSans-13" transform="translate(63.623047 0.665625)"/>
       <use xlink:href="#DejaVuSans-c9c" transform="translate(128.203125 41.965625) scale(0.7)"/>
       <use xlink:href="#DejaVuSans-14" transform="translate(186.855469 41.965625) scale(0.7)"/>
      </g>
     </g>
    </g>
    <g id="ytick_5">
     <g id="line2d_21">
      <path d="M 56.039385 64.872706 
L 728.716308 64.872706 
" clip-path="url(#pb9766e3c45)" style="fill: none; stroke: #b0b0b0; stroke-opacity: 0.22; stroke-width: 0.8; stroke-linecap: square"/>
     </g>
     <g id="line2d_22">
      <g>
       <use xlink:href="#m4d4188efcd" x="56.039385" y="64.872706" style="stroke: #000000; stroke-width: 0.8"/>
      </g>
     </g>
     <g id="text_12">
      <!-- $\mathdefault{10^{0}}$ -->
      <g style="fill: #4e79a7" transform="translate(31.439385 69.572706) scale(0.1 -0.1)">
       <use xlink:href="#DejaVuSans-14" transform="translate(0 0.746875)"/>
       <use xlink:href="#DejaVuSans-13" transform="translate(63.623047 0.746875)"/>
       <use xlink:href="#DejaVuSans-13" transform="translate(128.203125 42.046875) scale(0.7)"/>
      </g>
     </g>
    </g>
    <g id="ytick_6">
     <g id="line2d_23">
      <path d="M 56.039385 367.679955 
L 728.716308 367.679955 
" clip-path="url(#pb9766e3c45)" style="fill: none; stroke: #b0b0b0; stroke-opacity: 0.22; stroke-width: 0.8; stroke-linecap: square"/>
     </g>
     <g id="line2d_24">
      <defs>
       <path id="m69afe3ebf3" d="M 0 0 
L -2 0 
" style="stroke: #000000; stroke-width: 0.6"/>
      </defs>
      <g>
       <use xlink:href="#m69afe3ebf3" x="56.039385" y="367.679955" style="stroke: #000000; stroke-width: 0.6"/>
      </g>
     </g>
    </g>
    <g id="ytick_7">
     <g id="line2d_25">
      <path d="M 56.039385 363.899214 
L 728.716308 363.899214 
" clip-path="url(#pb9766e3c45)" style="fill: none; stroke: #b0b0b0; stroke-opacity: 0.22; stroke-width: 0.8; stroke-linecap: square"/>
     </g>
     <g id="line2d_26">
      <g>
       <use xlink:href="#m69afe3ebf3" x="56.039385" y="363.899214" style="stroke: #000000; stroke-width: 0.6"/>
      </g>
     </g>
    </g>
    <g id="ytick_8">
     <g id="line2d_27">
      <path d="M 56.039385 338.267759 
L 728.716308 338.267759 
" clip-path="url(#pb9766e3c45)" style="fill: none; stroke: #b0b0b0; stroke-opacity: 0.22; stroke-width: 0.8; stroke-linecap: square"/>
     </g>
     <g id="line2d_28">
      <g>
       <use xlink:href="#m69afe3ebf3" x="56.039385" y="338.267759" style="stroke: #000000; stroke-width: 0.6"/>
      </g>
     </g>
    </g>
    <g id="ytick_9">
     <g id="line2d_29">
      <path d="M 56.039385 325.252655 
L 728.716308 325.252655 
" clip-path="url(#pb9766e3c45)" style="fill: none; stroke: #b0b0b0; stroke-opacity: 0.22; stroke-width: 0.8; stroke-linecap: square"/>
     </g>
     <g id="line2d_30">
      <g>
       <use xlink:href="#m69afe3ebf3" x="56.039385" y="325.252655" style="stroke: #000000; stroke-width: 0.6"/>
      </g>
     </g>
    </g>
    <g id="ytick_10">
     <g id="line2d_31">
      <path d="M 56.039385 316.018292 
L 728.716308 316.018292 
" clip-path="url(#pb9766e3c45)" style="fill: none; stroke: #b0b0b0; stroke-opacity: 0.22; stroke-width: 0.8; stroke-linecap: square"/>
     </g>
     <g id="line2d_32">
      <g>
       <use xlink:href="#m69afe3ebf3" x="56.039385" y="316.018292" style="stroke: #000000; stroke-width: 0.6"/>
      </g>
     </g>
    </g>
    <g id="ytick_11">
     <g id="line2d_33">
      <path d="M 56.039385 308.855563 
L 728.716308 308.855563 
" clip-path="url(#pb9766e3c45)" style="fill: none; stroke: #b0b0b0; stroke-opacity: 0.22; stroke-width: 0.8; stroke-linecap: square"/>
     </g>
     <g id="line2d_34">
      <g>
       <use xlink:href="#m69afe3ebf3" x="56.039385" y="308.855563" style="stroke: #000000; stroke-width: 0.6"/>
      </g>
     </g>
    </g>
    <g id="ytick_12">
     <g id="line2d_35">
      <path d="M 56.039385 303.003188 
L 728.716308 303.003188 
" clip-path="url(#pb9766e3c45)" style="fill: none; stroke: #b0b0b0; stroke-opacity: 0.22; stroke-width: 0.8; stroke-linecap: square"/>
     </g>
     <g id="line2d_36">
      <g>
       <use xlink:href="#m69afe3ebf3" x="56.039385" y="303.003188" style="stroke: #000000; stroke-width: 0.6"/>
      </g>
     </g>
    </g>
    <g id="ytick_13">
     <g id="line2d_37">
      <path d="M 56.039385 298.055075 
L 728.716308 298.055075 
" clip-path="url(#pb9766e3c45)" style="fill: none; stroke: #b0b0b0; stroke-opacity: 0.22; stroke-width: 0.8; stroke-linecap: square"/>
     </g>
     <g id="line2d_38">
      <g>
       <use xlink:href="#m69afe3ebf3" x="56.039385" y="298.055075" style="stroke: #000000; stroke-width: 0.6"/>
      </g>
     </g>
    </g>
    <g id="ytick_14">
     <g id="line2d_39">
      <path d="M 56.039385 293.768825 
L 728.716308 293.768825 
" clip-path="url(#pb9766e3c45)" style="fill: none; stroke: #b0b0b0; stroke-opacity: 0.22; stroke-width: 0.8; stroke-linecap: square"/>
     </g>
     <g id="line2d_40">
      <g>
       <use xlink:href="#m69afe3ebf3" x="56.039385" y="293.768825" style="stroke: #000000; stroke-width: 0.6"/>
      </g>
     </g>
    </g>
    <g id="ytick_15">
     <g id="line2d_41">
      <path d="M 56.039385 289.988084 
L 728.716308 289.988084 
" clip-path="url(#pb9766e3c45)" style="fill: none; stroke: #b0b0b0; stroke-opacity: 0.22; stroke-width: 0.8; stroke-linecap: square"/>
     </g>
     <g id="line2d_42">
      <g>
       <use xlink:href="#m69afe3ebf3" x="56.039385" y="289.988084" style="stroke: #000000; stroke-width: 0.6"/>
      </g>
     </g>
    </g>
    <g id="ytick_16">
     <g id="line2d_43">
      <path d="M 56.039385 264.356629 
L 728.716308 264.356629 
" clip-path="url(#pb9766e3c45)" style="fill: none; stroke: #b0b0b0; stroke-opacity: 0.22; stroke-width: 0.8; stroke-linecap: square"/>
     </g>
     <g id="line2d_44">
      <g>
       <use xlink:href="#m69afe3ebf3" x="56.039385" y="264.356629" style="stroke: #000000; stroke-width: 0.6"/>
      </g>
     </g>
    </g>
    <g id="ytick_17">
     <g id="line2d_45">
      <path d="M 56.039385 251.341525 
L 728.716308 251.341525 
" clip-path="url(#pb9766e3c45)" style="fill: none; stroke: #b0b0b0; stroke-opacity: 0.22; stroke-width: 0.8; stroke-linecap: square"/>
     </g>
     <g id="line2d_46">
      <g>
       <use xlink:href="#m69afe3ebf3" x="56.039385" y="251.341525" style="stroke: #000000; stroke-width: 0.6"/>
      </g>
     </g>
    </g>
    <g id="ytick_18">
     <g id="line2d_47">
      <path d="M 56.039385 242.107162 
L 728.716308 242.107162 
" clip-path="url(#pb9766e3c45)" style="fill: none; stroke: #b0b0b0; stroke-opacity: 0.22; stroke-width: 0.8; stroke-linecap: square"/>
     </g>
     <g id="line2d_48">
      <g>
       <use xlink:href="#m69afe3ebf3" x="56.039385" y="242.107162" style="stroke: #000000; stroke-width: 0.6"/>
      </g>
     </g>
    </g>
    <g id="ytick_19">
     <g id="line2d_49">
      <path d="M 56.039385 234.944433 
L 728.716308 234.944433 
" clip-path="url(#pb9766e3c45)" style="fill: none; stroke: #b0b0b0; stroke-opacity: 0.22; stroke-width: 0.8; stroke-linecap: square"/>
     </g>
     <g id="line2d_50">
      <g>
       <use xlink:href="#m69afe3ebf3" x="56.039385" y="234.944433" style="stroke: #000000; stroke-width: 0.6"/>
      </g>
     </g>
    </g>
    <g id="ytick_20">
     <g id="line2d_51">
      <path d="M 56.039385 229.092058 
L 728.716308 229.092058 
" clip-path="url(#pb9766e3c45)" style="fill: none; stroke: #b0b0b0; stroke-opacity: 0.22; stroke-width: 0.8; stroke-linecap: square"/>
     </g>
     <g id="line2d_52">
      <g>
       <use xlink:href="#m69afe3ebf3" x="56.039385" y="229.092058" style="stroke: #000000; stroke-width: 0.6"/>
      </g>
     </g>
    </g>
    <g id="ytick_21">
     <g id="line2d_53">
      <path d="M 56.039385 224.143945 
L 728.716308 224.143945 
" clip-path="url(#pb9766e3c45)" style="fill: none; stroke: #b0b0b0; stroke-opacity: 0.22; stroke-width: 0.8; stroke-linecap: square"/>
     </g>
     <g id="line2d_54">
      <g>
       <use xlink:href="#m69afe3ebf3" x="56.039385" y="224.143945" style="stroke: #000000; stroke-width: 0.6"/>
      </g>
     </g>
    </g>
    <g id="ytick_22">
     <g id="line2d_55">
      <path d="M 56.039385 219.857694 
L 728.716308 219.857694 
" clip-path="url(#pb9766e3c45)" style="fill: none; stroke: #b0b0b0; stroke-opacity: 0.22; stroke-width: 0.8; stroke-linecap: square"/>
     </g>
     <g id="line2d_56">
      <g>
       <use xlink:href="#m69afe3ebf3" x="56.039385" y="219.857694" style="stroke: #000000; stroke-width: 0.6"/>
      </g>
     </g>
    </g>
    <g id="ytick_23">
     <g id="line2d_57">
      <path d="M 56.039385 216.076954 
L 728.716308 216.076954 
" clip-path="url(#pb9766e3c45)" style="fill: none; stroke: #b0b0b0; stroke-opacity: 0.22; stroke-width: 0.8; stroke-linecap: square"/>
     </g>
     <g id="line2d_58">
      <g>
       <use xlink:href="#m69afe3ebf3" x="56.039385" y="216.076954" style="stroke: #000000; stroke-width: 0.6"/>
      </g>
     </g>
    </g>
    <g id="ytick_24">
     <g id="line2d_59">
      <path d="M 56.039385 190.445499 
L 728.716308 190.445499 
" clip-path="url(#pb9766e3c45)" style="fill: none; stroke: #b0b0b0; stroke-opacity: 0.22; stroke-width: 0.8; stroke-linecap: square"/>
     </g>
     <g id="line2d_60">
      <g>
       <use xlink:href="#m69afe3ebf3" x="56.039385" y="190.445499" style="stroke: #000000; stroke-width: 0.6"/>
      </g>
     </g>
    </g>
    <g id="ytick_25">
     <g id="line2d_61">
      <path d="M 56.039385 177.430395 
L 728.716308 177.430395 
" clip-path="url(#pb9766e3c45)" style="fill: none; stroke: #b0b0b0; stroke-opacity: 0.22; stroke-width: 0.8; stroke-linecap: square"/>
     </g>
     <g id="line2d_62">
      <g>
       <use xlink:href="#m69afe3ebf3" x="56.039385" y="177.430395" style="stroke: #000000; stroke-width: 0.6"/>
      </g>
     </g>
    </g>
    <g id="ytick_26">
     <g id="line2d_63">
      <path d="M 56.039385 168.196032 
L 728.716308 168.196032 
" clip-path="url(#pb9766e3c45)" style="fill: none; stroke: #b0b0b0; stroke-opacity: 0.22; stroke-width: 0.8; stroke-linecap: square"/>
     </g>
     <g id="line2d_64">
      <g>
       <use xlink:href="#m69afe3ebf3" x="56.039385" y="168.196032" style="stroke: #000000; stroke-width: 0.6"/>
      </g>
     </g>
    </g>
    <g id="ytick_27">
     <g id="line2d_65">
      <path d="M 56.039385 161.033303 
L 728.716308 161.033303 
" clip-path="url(#pb9766e3c45)" style="fill: none; stroke: #b0b0b0; stroke-opacity: 0.22; stroke-width: 0.8; stroke-linecap: square"/>
     </g>
     <g id="line2d_66">
      <g>
       <use xlink:href="#m69afe3ebf3" x="56.039385" y="161.033303" style="stroke: #000000; stroke-width: 0.6"/>
      </g>
     </g>
    </g>
    <g id="ytick_28">
     <g id="line2d_67">
      <path d="M 56.039385 155.180928 
L 728.716308 155.180928 
" clip-path="url(#pb9766e3c45)" style="fill: none; stroke: #b0b0b0; stroke-opacity: 0.22; stroke-width: 0.8; stroke-linecap: square"/>
     </g>
     <g id="line2d_68">
      <g>
       <use xlink:href="#m69afe3ebf3" x="56.039385" y="155.180928" style="stroke: #000000; stroke-width: 0.6"/>
      </g>
     </g>
    </g>
    <g id="ytick_29">
     <g id="line2d_69">
      <path d="M 56.039385 150.232815 
L 728.716308 150.232815 
" clip-path="url(#pb9766e3c45)" style="fill: none; stroke: #b0b0b0; stroke-opacity: 0.22; stroke-width: 0.8; stroke-linecap: square"/>
     </g>
     <g id="line2d_70">
      <g>
       <use xlink:href="#m69afe3ebf3" x="56.039385" y="150.232815" style="stroke: #000000; stroke-width: 0.6"/>
      </g>
     </g>
    </g>
    <g id="ytick_30">
     <g id="line2d_71">
      <path d="M 56.039385 145.946564 
L 728.716308 145.946564 
" clip-path="url(#pb9766e3c45)" style="fill: none; stroke: #b0b0b0; stroke-opacity: 0.22; stroke-width: 0.8; stroke-linecap: square"/>
     </g>
     <g id="line2d_72">
      <g>
       <use xlink:href="#m69afe3ebf3" x="56.039385" y="145.946564" style="stroke: #000000; stroke-width: 0.6"/>
      </g>
     </g>
    </g>
    <g id="ytick_31">
     <g id="line2d_73">
      <path d="M 56.039385 142.165824 
L 728.716308 142.165824 
" clip-path="url(#pb9766e3c45)" style="fill: none; stroke: #b0b0b0; stroke-opacity: 0.22; stroke-width: 0.8; stroke-linecap: square"/>
     </g>
     <g id="line2d_74">
      <g>
       <use xlink:href="#m69afe3ebf3" x="56.039385" y="142.165824" style="stroke: #000000; stroke-width: 0.6"/>
      </g>
     </g>
    </g>
    <g id="ytick_32">
     <g id="line2d_75">
      <path d="M 56.039385 116.534369 
L 728.716308 116.534369 
" clip-path="url(#pb9766e3c45)" style="fill: none; stroke: #b0b0b0; stroke-opacity: 0.22; stroke-width: 0.8; stroke-linecap: square"/>
     </g>
     <g id="line2d_76">
      <g>
       <use xlink:href="#m69afe3ebf3" x="56.039385" y="116.534369" style="stroke: #000000; stroke-width: 0.6"/>
      </g>
     </g>
    </g>
    <g id="ytick_33">
     <g id="line2d_77">
      <path d="M 56.039385 103.519265 
L 728.716308 103.519265 
" clip-path="url(#pb9766e3c45)" style="fill: none; stroke: #b0b0b0; stroke-opacity: 0.22; stroke-width: 0.8; stroke-linecap: square"/>
     </g>
     <g id="line2d_78">
      <g>
       <use xlink:href="#m69afe3ebf3" x="56.039385" y="103.519265" style="stroke: #000000; stroke-width: 0.6"/>
      </g>
     </g>
    </g>
    <g id="ytick_34">
     <g id="line2d_79">
      <path d="M 56.039385 94.284901 
L 728.716308 94.284901 
" clip-path="url(#pb9766e3c45)" style="fill: none; stroke: #b0b0b0; stroke-opacity: 0.22; stroke-width: 0.8; stroke-linecap: square"/>
     </g>
     <g id="line2d_80">
      <g>
       <use xlink:href="#m69afe3ebf3" x="56.039385" y="94.284901" style="stroke: #000000; stroke-width: 0.6"/>
      </g>
     </g>
    </g>
    <g id="ytick_35">
     <g id="line2d_81">
      <path d="M 56.039385 87.122173 
L 728.716308 87.122173 
" clip-path="url(#pb9766e3c45)" style="fill: none; stroke: #b0b0b0; stroke-opacity: 0.22; stroke-width: 0.8; stroke-linecap: square"/>
     </g>
     <g id="line2d_82">
      <g>
       <use xlink:href="#m69afe3ebf3" x="56.039385" y="87.122173" style="stroke: #000000; stroke-width: 0.6"/>
      </g>
     </g>
    </g>
    <g id="ytick_36">
     <g id="line2d_83">
      <path d="M 56.039385 81.269798 
L 728.716308 81.269798 
" clip-path="url(#pb9766e3c45)" style="fill: none; stroke: #b0b0b0; stroke-opacity: 0.22; stroke-width: 0.8; stroke-linecap: square"/>
     </g>
     <g id="line2d_84">
      <g>
       <use xlink:href="#m69afe3ebf3" x="56.039385" y="81.269798" style="stroke: #000000; stroke-width: 0.6"/>
      </g>
     </g>
    </g>
    <g id="ytick_37">
     <g id="line2d_85">
      <path d="M 56.039385 76.321685 
L 728.716308 76.321685 
" clip-path="url(#pb9766e3c45)" style="fill: none; stroke: #b0b0b0; stroke-opacity: 0.22; stroke-width: 0.8; stroke-linecap: square"/>
     </g>
     <g id="line2d_86">
      <g>
       <use xlink:href="#m69afe3ebf3" x="56.039385" y="76.321685" style="stroke: #000000; stroke-width: 0.6"/>
      </g>
     </g>
    </g>
    <g id="ytick_38">
     <g id="line2d_87">
      <path d="M 56.039385 72.035434 
L 728.716308 72.035434 
" clip-path="url(#pb9766e3c45)" style="fill: none; stroke: #b0b0b0; stroke-opacity: 0.22; stroke-width: 0.8; stroke-linecap: square"/>
     </g>
     <g id="line2d_88">
      <g>
       <use xlink:href="#m69afe3ebf3" x="56.039385" y="72.035434" style="stroke: #000000; stroke-width: 0.6"/>
      </g>
     </g>
    </g>
    <g id="ytick_39">
     <g id="line2d_89">
      <path d="M 56.039385 68.254694 
L 728.716308 68.254694 
" clip-path="url(#pb9766e3c45)" style="fill: none; stroke: #b0b0b0; stroke-opacity: 0.22; stroke-width: 0.8; stroke-linecap: square"/>
     </g>
     <g id="line2d_90">
      <g>
       <use xlink:href="#m69afe3ebf3" x="56.039385" y="68.254694" style="stroke: #000000; stroke-width: 0.6"/>
      </g>
     </g>
    </g>
    <g id="ytick_40">
     <g id="line2d_91">
      <path d="M 56.039385 42.623239 
L 728.716308 42.623239 
" clip-path="url(#pb9766e3c45)" style="fill: none; stroke: #b0b0b0; stroke-opacity: 0.22; stroke-width: 0.8; stroke-linecap: square"/>
     </g>
     <g id="line2d_92">
      <g>
       <use xlink:href="#m69afe3ebf3" x="56.039385" y="42.623239" style="stroke: #000000; stroke-width: 0.6"/>
      </g>
     </g>
    </g>
    <g id="ytick_41">
     <g id="line2d_93">
      <path d="M 56.039385 29.608135 
L 728.716308 29.608135 
" clip-path="url(#pb9766e3c45)" style="fill: none; stroke: #b0b0b0; stroke-opacity: 0.22; stroke-width: 0.8; stroke-linecap: square"/>
     </g>
     <g id="line2d_94">
      <g>
       <use xlink:href="#m69afe3ebf3" x="56.039385" y="29.608135" style="stroke: #000000; stroke-width: 0.6"/>
      </g>
     </g>
    </g>
    <g id="text_13">
     <!-- Training loss (log scale) -->
     <g style="fill: #4e79a7" transform="translate(18.896806 261.792484) rotate(-90) scale(0.11 -0.11)">
      <defs>
       <path id="DejaVuSans-37" d="M -19 4666 
L 3928 4666 
L 3928 4134 
L 2272 4134 
L 2272 0 
L 1638 0 
L 1638 4134 
L -19 4134 
L -19 4666 
z
" transform="scale(0.015625)"/>
       <path id="DejaVuSans-44" d="M 2194 1759 
Q 1497 1759 1228 1600 
Q 959 1441 959 1056 
Q 959 750 1161 570 
Q 1363 391 1709 391 
Q 2188 391 2477 730 
Q 2766 1069 2766 1631 
L 2766 1759 
L 2194 1759 
z
M 3341 1997 
L 3341 0 
L 2766 0 
L 2766 531 
Q 2569 213 2275 61 
Q 1981 -91 1556 -91 
Q 1019 -91 701 211 
Q 384 513 384 1019 
Q 384 1609 779 1909 
Q 1175 2209 1959 2209 
L 2766 2209 
L 2766 2266 
Q 2766 2663 2505 2880 
Q 2244 3097 1772 3097 
Q 1472 3097 1187 3025 
Q 903 2953 641 2809 
L 641 3341 
Q 956 3463 1253 3523 
Q 1550 3584 1831 3584 
Q 2591 3584 2966 3190 
Q 3341 2797 3341 1997 
z
" transform="scale(0.015625)"/>
       <path id="DejaVuSans-51" d="M 3513 2113 
L 3513 0 
L 2938 0 
L 2938 2094 
Q 2938 2591 2744 2837 
Q 2550 3084 2163 3084 
Q 1697 3084 1428 2787 
Q 1159 2491 1159 1978 
L 1159 0 
L 581 0 
L 581 3500 
L 1159 3500 
L 1159 2956 
Q 1366 3272 1645 3428 
Q 1925 3584 2291 3584 
Q 2894 3584 3203 3211 
Q 3513 2838 3513 2113 
z
" transform="scale(0.015625)"/>
       <path id="DejaVuSans-4a" d="M 2906 1791 
Q 2906 2416 2648 2759 
Q 2391 3103 1925 3103 
Q 1463 3103 1205 2759 
Q 947 2416 947 1791 
Q 947 1169 1205 825 
Q 1463 481 1925 481 
Q 2391 481 2648 825 
Q 2906 1169 2906 1791 
z
M 3481 434 
Q 3481 -459 3084 -895 
Q 2688 -1331 1869 -1331 
Q 1566 -1331 1297 -1286 
Q 1028 -1241 775 -1147 
L 775 -588 
Q 1028 -725 1275 -790 
Q 1522 -856 1778 -856 
Q 2344 -856 2625 -561 
Q 2906 -266 2906 331 
L 2906 616 
Q 2728 306 2450 153 
Q 2172 0 1784 0 
Q 1141 0 747 490 
Q 353 981 353 1791 
Q 353 2603 747 3093 
Q 1141 3584 1784 3584 
Q 2172 3584 2450 3431 
Q 2728 3278 2906 2969 
L 2906 3500 
L 3481 3500 
L 3481 434 
z
" transform="scale(0.015625)"/>
       <path id="DejaVuSans-4f" d="M 603 4863 
L 1178 4863 
L 1178 0 
L 603 0 
L 603 4863 
z
" transform="scale(0.015625)"/>
       <path id="DejaVuSans-52" d="M 1959 3097 
Q 1497 3097 1228 2736 
Q 959 2375 959 1747 
Q 959 1119 1226 758 
Q 1494 397 1959 397 
Q 2419 397 2687 759 
Q 2956 1122 2956 1747 
Q 2956 2369 2687 2733 
Q 2419 3097 1959 3097 
z
M 1959 3584 
Q 2709 3584 3137 3096 
Q 3566 2609 3566 1747 
Q 3566 888 3137 398 
Q 2709 -91 1959 -91 
Q 1206 -91 779 398 
Q 353 888 353 1747 
Q 353 2609 779 3096 
Q 1206 3584 1959 3584 
z
" transform="scale(0.015625)"/>
       <path id="DejaVuSans-b" d="M 1984 4856 
Q 1566 4138 1362 3434 
Q 1159 2731 1159 2009 
Q 1159 1288 1364 580 
Q 1569 -128 1984 -844 
L 1484 -844 
Q 1016 -109 783 600 
Q 550 1309 550 2009 
Q 550 2706 781 3412 
Q 1013 4119 1484 4856 
L 1984 4856 
z
" transform="scale(0.015625)"/>
       <path id="DejaVuSans-46" d="M 3122 3366 
L 3122 2828 
Q 2878 2963 2633 3030 
Q 2388 3097 2138 3097 
Q 1578 3097 1268 2742 
Q 959 2388 959 1747 
Q 959 1106 1268 751 
Q 1578 397 2138 397 
Q 2388 397 2633 464 
Q 2878 531 3122 666 
L 3122 134 
Q 2881 22 2623 -34 
Q 2366 -91 2075 -91 
Q 1284 -91 818 406 
Q 353 903 353 1747 
Q 353 2603 823 3093 
Q 1294 3584 2113 3584 
Q 2378 3584 2631 3529 
Q 2884 3475 3122 3366 
z
" transform="scale(0.015625)"/>
       <path id="DejaVuSans-c" d="M 513 4856 
L 1013 4856 
Q 1481 4119 1714 3412 
Q 1947 2706 1947 2009 
Q 1947 1309 1714 600 
Q 1481 -109 1013 -844 
L 513 -844 
Q 928 -128 1133 580 
Q 1338 1288 1338 2009 
Q 1338 2731 1133 3434 
Q 928 4138 513 4856 
z
" transform="scale(0.015625)"/>
      </defs>
      <use xlink:href="#DejaVuSans-37"/>
      <use xlink:href="#DejaVuSans-55" transform="translate(46.375 0)"/>
      <use xlink:href="#DejaVuSans-44" transform="translate(87.484375 0)"/>
      <use xlink:href="#DejaVuSans-4c" transform="translate(148.765625 0)"/>
      <use xlink:href="#DejaVuSans-51" transform="translate(176.546875 0)"/>
      <use xlink:href="#DejaVuSans-4c" transform="translate(239.921875 0)"/>
      <use xlink:href="#DejaVuSans-51" transform="translate(267.703125 0)"/>
      <use xlink:href="#DejaVuSans-4a" transform="translate(331.078125 0)"/>
      <use xlink:href="#DejaVuSans-3" transform="translate(394.5625 0)"/>
      <use xlink:href="#DejaVuSans-4f" transform="translate(426.34375 0)"/>
      <use xlink:href="#DejaVuSans-52" transform="translate(454.125 0)"/>
      <use xlink:href="#DejaVuSans-56" transform="translate(515.3125 0)"/>
      <use xlink:href="#DejaVuSans-56" transform="translate(567.40625 0)"/>
      <use xlink:href="#DejaVuSans-3" transform="translate(619.5 0)"/>
      <use xlink:href="#DejaVuSans-b" transform="translate(651.28125 0)"/>
      <use xlink:href="#DejaVuSans-4f" transform="translate(690.296875 0)"/>
      <use xlink:href="#DejaVuSans-52" transform="translate(718.078125 0)"/>
      <use xlink:href="#DejaVuSans-4a" transform="translate(779.265625 0)"/>
      <use xlink:href="#DejaVuSans-3" transform="translate(842.75 0)"/>
      <use xlink:href="#DejaVuSans-56" transform="translate(874.53125 0)"/>
      <use xlink:href="#DejaVuSans-46" transform="translate(926.625 0)"/>
      <use xlink:href="#DejaVuSans-44" transform="translate(981.609375 0)"/>
      <use xlink:href="#DejaVuSans-4f" transform="translate(1042.890625 0)"/>
      <use xlink:href="#DejaVuSans-48" transform="translate(1070.671875 0)"/>
      <use xlink:href="#DejaVuSans-c" transform="translate(1132.203125 0)"/>
     </g>
    </g>
   </g>
   <g id="line2d_95">
    <path d="M 86.615608 39.613962 
L 98.153806 41.097216 
L 109.692004 51.403584 
L 121.230201 66.237077 
L 132.768399 63.841079 
L 144.306597 95.51346 
L 155.844794 119.589173 
L 167.382992 126.067585 
L 178.92119 136.64897 
L 190.459387 154.87755 
L 201.997585 156.089694 
L 213.535783 190.078321 
L 225.07398 182.463968 
L 236.612178 163.060061 
L 248.150376 177.185065 
L 259.688573 227.173173 
L 271.226771 230.349021 
L 282.764968 223.328568 
L 294.303166 233.383864 
L 305.841364 249.080055 
L 317.379561 260.300986 
L 328.917759 218.520937 
L 340.455957 281.649379 
L 351.994154 244.844988 
L 363.532352 227.234919 
L 375.07055 301.058697 
L 386.608747 275.443285 
L 398.146945 243.407794 
L 409.685143 301.468823 
L 421.22334 207.865275 
L 432.761538 285.582012 
L 444.299736 261.503829 
L 455.837933 317.536006 
L 467.376131 307.262229 
L 478.914329 330.832829 
L 490.452526 337.285191 
L 501.990724 342.098852 
L 513.528921 347.800821 
L 525.067119 335.509554 
L 536.605317 341.829756 
L 548.143514 335.714766 
L 559.681712 328.637243 
L 571.21991 336.728105 
L 582.758107 344.891498 
L 594.296305 352.212411 
L 605.834503 349.738792 
L 617.3727 352.637487 
L 628.910898 346.2965 
L 640.449096 355.136945 
L 651.987293 350.718506 
L 663.525491 344.875939 
L 675.063689 348.435296 
L 686.601886 351.431212 
L 698.140084 346.239858 
" clip-path="url(#pb9766e3c45)" style="fill: none; stroke: #4e79a7; stroke-width: 1.7; stroke-linecap: square"/>
    <defs>
     <path id="m95affe7134" d="M 0 1.5 
C 0.397805 1.5 0.77937 1.341951 1.06066 1.06066 
C 1.341951 0.77937 1.5 0.397805 1.5 0 
C 1.5 -0.397805 1.341951 -0.77937 1.06066 -1.06066 
C 0.77937 -1.341951 0.397805 -1.5 0 -1.5 
C -0.397805 -1.5 -0.77937 -1.341951 -1.06066 -1.06066 
C -1.341951 -0.77937 -1.5 -0.397805 -1.5 0 
C -1.5 0.397805 -1.341951 0.77937 -1.06066 1.06066 
C -0.77937 1.341951 -0.397805 1.5 0 1.5 
z
" style="stroke: #4e79a7"/>
    </defs>
    <g clip-path="url(#pb9766e3c45)">
     <use xlink:href="#m95affe7134" x="86.615608" y="39.613962" style="fill: #4e79a7; stroke: #4e79a7"/>
     <use xlink:href="#m95affe7134" x="98.153806" y="41.097216" style="fill: #4e79a7; stroke: #4e79a7"/>
     <use xlink:href="#m95affe7134" x="109.692004" y="51.403584" style="fill: #4e79a7; stroke: #4e79a7"/>
     <use xlink:href="#m95affe7134" x="121.230201" y="66.237077" style="fill: #4e79a7; stroke: #4e79a7"/>
     <use xlink:href="#m95affe7134" x="132.768399" y="63.841079" style="fill: #4e79a7; stroke: #4e79a7"/>
     <use xlink:href="#m95affe7134" x="144.306597" y="95.51346" style="fill: #4e79a7; stroke: #4e79a7"/>
     <use xlink:href="#m95affe7134" x="155.844794" y="119.589173" style="fill: #4e79a7; stroke: #4e79a7"/>
     <use xlink:href="#m95affe7134" x="167.382992" y="126.067585" style="fill: #4e79a7; stroke: #4e79a7"/>
     <use xlink:href="#m95affe7134" x="178.92119" y="136.64897" style="fill: #4e79a7; stroke: #4e79a7"/>
     <use xlink:href="#m95affe7134" x="190.459387" y="154.87755" style="fill: #4e79a7; stroke: #4e79a7"/>
     <use xlink:href="#m95affe7134" x="201.997585" y="156.089694" style="fill: #4e79a7; stroke: #4e79a7"/>
     <use xlink:href="#m95affe7134" x="213.535783" y="190.078321" style="fill: #4e79a7; stroke: #4e79a7"/>
     <use xlink:href="#m95affe7134" x="225.07398" y="182.463968" style="fill: #4e79a7; stroke: #4e79a7"/>
     <use xlink:href="#m95affe7134" x="236.612178" y="163.060061" style="fill: #4e79a7; stroke: #4e79a7"/>
     <use xlink:href="#m95affe7134" x="248.150376" y="177.185065" style="fill: #4e79a7; stroke: #4e79a7"/>
     <use xlink:href="#m95affe7134" x="259.688573" y="227.173173" style="fill: #4e79a7; stroke: #4e79a7"/>
     <use xlink:href="#m95affe7134" x="271.226771" y="230.349021" style="fill: #4e79a7; stroke: #4e79a7"/>
     <use xlink:href="#m95affe7134" x="282.764968" y="223.328568" style="fill: #4e79a7; stroke: #4e79a7"/>
     <use xlink:href="#m95affe7134" x="294.303166" y="233.383864" style="fill: #4e79a7; stroke: #4e79a7"/>
     <use xlink:href="#m95affe7134" x="305.841364" y="249.080055" style="fill: #4e79a7; stroke: #4e79a7"/>
     <use xlink:href="#m95affe7134" x="317.379561" y="260.300986" style="fill: #4e79a7; stroke: #4e79a7"/>
     <use xlink:href="#m95affe7134" x="328.917759" y="218.520937" style="fill: #4e79a7; stroke: #4e79a7"/>
     <use xlink:href="#m95affe7134" x="340.455957" y="281.649379" style="fill: #4e79a7; stroke: #4e79a7"/>
     <use xlink:href="#m95affe7134" x="351.994154" y="244.844988" style="fill: #4e79a7; stroke: #4e79a7"/>
     <use xlink:href="#m95affe7134" x="363.532352" y="227.234919" style="fill: #4e79a7; stroke: #4e79a7"/>
     <use xlink:href="#m95affe7134" x="375.07055" y="301.058697" style="fill: #4e79a7; stroke: #4e79a7"/>
     <use xlink:href="#m95affe7134" x="386.608747" y="275.443285" style="fill: #4e79a7; stroke: #4e79a7"/>
     <use xlink:href="#m95affe7134" x="398.146945" y="243.407794" style="fill: #4e79a7; stroke: #4e79a7"/>
     <use xlink:href="#m95affe7134" x="409.685143" y="301.468823" style="fill: #4e79a7; stroke: #4e79a7"/>
     <use xlink:href="#m95affe7134" x="421.22334" y="207.865275" style="fill: #4e79a7; stroke: #4e79a7"/>
     <use xlink:href="#m95affe7134" x="432.761538" y="285.582012" style="fill: #4e79a7; stroke: #4e79a7"/>
     <use xlink:href="#m95affe7134" x="444.299736" y="261.503829" style="fill: #4e79a7; stroke: #4e79a7"/>
     <use xlink:href="#m95affe7134" x="455.837933" y="317.536006" style="fill: #4e79a7; stroke: #4e79a7"/>
     <use xlink:href="#m95affe7134" x="467.376131" y="307.262229" style="fill: #4e79a7; stroke: #4e79a7"/>
     <use xlink:href="#m95affe7134" x="478.914329" y="330.832829" style="fill: #4e79a7; stroke: #4e79a7"/>
     <use xlink:href="#m95affe7134" x="490.452526" y="337.285191" style="fill: #4e79a7; stroke: #4e79a7"/>
     <use xlink:href="#m95affe7134" x="501.990724" y="342.098852" style="fill: #4e79a7; stroke: #4e79a7"/>
     <use xlink:href="#m95affe7134" x="513.528921" y="347.800821" style="fill: #4e79a7; stroke: #4e79a7"/>
     <use xlink:href="#m95affe7134" x="525.067119" y="335.509554" style="fill: #4e79a7; stroke: #4e79a7"/>
     <use xlink:href="#m95affe7134" x="536.605317" y="341.829756" style="fill: #4e79a7; stroke: #4e79a7"/>
     <use xlink:href="#m95affe7134" x="548.143514" y="335.714766" style="fill: #4e79a7; stroke: #4e79a7"/>
     <use xlink:href="#m95affe7134" x="559.681712" y="328.637243" style="fill: #4e79a7; stroke: #4e79a7"/>
     <use xlink:href="#m95affe7134" x="571.21991" y="336.728105" style="fill: #4e79a7; stroke: #4e79a7"/>
     <use xlink:href="#m95affe7134" x="582.758107" y="344.891498" style="fill: #4e79a7; stroke: #4e79a7"/>
     <use xlink:href="#m95affe7134" x="594.296305" y="352.212411" style="fill: #4e79a7; stroke: #4e79a7"/>
     <use xlink:href="#m95affe7134" x="605.834503" y="349.738792" style="fill: #4e79a7; stroke: #4e79a7"/>
     <use xlink:href="#m95affe7134" x="617.3727" y="352.637487" style="fill: #4e79a7; stroke: #4e79a7"/>
     <use xlink:href="#m95affe7134" x="628.910898" y="346.2965" style="fill: #4e79a7; stroke: #4e79a7"/>
     <use xlink:href="#m95affe7134" x="640.449096" y="355.136945" style="fill: #4e79a7; stroke: #4e79a7"/>
     <use xlink:href="#m95affe7134" x="651.987293" y="350.718506" style="fill: #4e79a7; stroke: #4e79a7"/>
     <use xlink:href="#m95affe7134" x="663.525491" y="344.875939" style="fill: #4e79a7; stroke: #4e79a7"/>
     <use xlink:href="#m95affe7134" x="675.063689" y="348.435296" style="fill: #4e79a7; stroke: #4e79a7"/>
     <use xlink:href="#m95affe7134" x="686.601886" y="351.431212" style="fill: #4e79a7; stroke: #4e79a7"/>
     <use xlink:href="#m95affe7134" x="698.140084" y="346.239858" style="fill: #4e79a7; stroke: #4e79a7"/>
    </g>
   </g>
   <g id="patch_3">
    <path d="M 56.039385 370.913094 
L 56.039385 23.837812 
" style="fill: none; stroke: #000000; stroke-width: 0.8; stroke-linejoin: miter; stroke-linecap: square"/>
   </g>
   <g id="patch_4">
    <path d="M 56.039385 370.913094 
L 728.716308 370.913094 
" style="fill: none; stroke: #000000; stroke-width: 0.8; stroke-linejoin: miter; stroke-linecap: square"/>
   </g>
   <g id="text_14">
    <!-- QLoRA training dynamics -->
    <g transform="translate(292.888159 17.837812) scale(0.14 -0.14)">
     <defs>
      <path id="DejaVuSans-Bold-34" d="M 2847 -84 
L 2753 -84 
Q 1600 -84 959 553 
Q 319 1191 319 2328 
Q 319 3463 958 4106 
Q 1597 4750 2719 4750 
Q 3853 4750 4486 4112 
Q 5119 3475 5119 2328 
Q 5119 1541 4783 972 
Q 4447 403 3816 116 
L 4756 -934 
L 3609 -934 
L 2847 -84 
z
M 2719 3878 
Q 2169 3878 1866 3472 
Q 1563 3066 1563 2328 
Q 1563 1578 1859 1179 
Q 2156 781 2719 781 
Q 3272 781 3575 1187 
Q 3878 1594 3878 2328 
Q 3878 3066 3575 3472 
Q 3272 3878 2719 3878 
z
" transform="scale(0.015625)"/>
      <path id="DejaVuSans-Bold-2f" d="M 588 4666 
L 1791 4666 
L 1791 909 
L 3903 909 
L 3903 0 
L 588 0 
L 588 4666 
z
" transform="scale(0.015625)"/>
      <path id="DejaVuSans-Bold-52" d="M 2203 2784 
Q 1831 2784 1636 2517 
Q 1441 2250 1441 1747 
Q 1441 1244 1636 976 
Q 1831 709 2203 709 
Q 2569 709 2762 976 
Q 2956 1244 2956 1747 
Q 2956 2250 2762 2517 
Q 2569 2784 2203 2784 
z
M 2203 3584 
Q 3106 3584 3614 3096 
Q 4122 2609 4122 1747 
Q 4122 884 3614 396 
Q 3106 -91 2203 -91 
Q 1297 -91 786 396 
Q 275 884 275 1747 
Q 275 2609 786 3096 
Q 1297 3584 2203 3584 
z
" transform="scale(0.015625)"/>
      <path id="DejaVuSans-Bold-35" d="M 2297 2597 
Q 2675 2597 2839 2737 
Q 3003 2878 3003 3200 
Q 3003 3519 2839 3656 
Q 2675 3794 2297 3794 
L 1791 3794 
L 1791 2597 
L 2297 2597 
z
M 1791 1766 
L 1791 0 
L 588 0 
L 588 4666 
L 2425 4666 
Q 3347 4666 3776 4356 
Q 4206 4047 4206 3378 
Q 4206 2916 3982 2619 
Q 3759 2322 3309 2181 
Q 3556 2125 3751 1926 
Q 3947 1728 4147 1325 
L 4800 0 
L 3519 0 
L 2950 1159 
Q 2778 1509 2601 1637 
Q 2425 1766 2131 1766 
L 1791 1766 
z
" transform="scale(0.015625)"/>
      <path id="DejaVuSans-Bold-24" d="M 3419 850 
L 1538 850 
L 1241 0 
L 31 0 
L 1759 4666 
L 3194 4666 
L 4922 0 
L 3713 0 
L 3419 850 
z
M 1838 1716 
L 3116 1716 
L 2478 3572 
L 1838 1716 
z
" transform="scale(0.015625)"/>
      <path id="DejaVuSans-Bold-3" transform="scale(0.015625)"/>
      <path id="DejaVuSans-Bold-57" d="M 1759 4494 
L 1759 3500 
L 2913 3500 
L 2913 2700 
L 1759 2700 
L 1759 1216 
Q 1759 972 1856 886 
Q 1953 800 2241 800 
L 2816 800 
L 2816 0 
L 1856 0 
Q 1194 0 917 276 
Q 641 553 641 1216 
L 641 2700 
L 84 2700 
L 84 3500 
L 641 3500 
L 641 4494 
L 1759 4494 
z
" transform="scale(0.015625)"/>
      <path id="DejaVuSans-Bold-55" d="M 3138 2547 
Q 2991 2616 2845 2648 
Q 2700 2681 2553 2681 
Q 2122 2681 1889 2404 
Q 1656 2128 1656 1613 
L 1656 0 
L 538 0 
L 538 3500 
L 1656 3500 
L 1656 2925 
Q 1872 3269 2151 3426 
Q 2431 3584 2822 3584 
Q 2878 3584 2943 3579 
Q 3009 3575 3134 3559 
L 3138 2547 
z
" transform="scale(0.015625)"/>
      <path id="DejaVuSans-Bold-44" d="M 2106 1575 
Q 1756 1575 1579 1456 
Q 1403 1338 1403 1106 
Q 1403 894 1545 773 
Q 1688 653 1941 653 
Q 2256 653 2472 879 
Q 2688 1106 2688 1447 
L 2688 1575 
L 2106 1575 
z
M 3816 1997 
L 3816 0 
L 2688 0 
L 2688 519 
Q 2463 200 2181 54 
Q 1900 -91 1497 -91 
Q 953 -91 614 226 
Q 275 544 275 1050 
Q 275 1666 698 1953 
Q 1122 2241 2028 2241 
L 2688 2241 
L 2688 2328 
Q 2688 2594 2478 2717 
Q 2269 2841 1825 2841 
Q 1466 2841 1156 2769 
Q 847 2697 581 2553 
L 581 3406 
Q 941 3494 1303 3539 
Q 1666 3584 2028 3584 
Q 2975 3584 3395 3211 
Q 3816 2838 3816 1997 
z
" transform="scale(0.015625)"/>
      <path id="DejaVuSans-Bold-4c" d="M 538 3500 
L 1656 3500 
L 1656 0 
L 538 0 
L 538 3500 
z
M 538 4863 
L 1656 4863 
L 1656 3950 
L 538 3950 
L 538 4863 
z
" transform="scale(0.015625)"/>
      <path id="DejaVuSans-Bold-51" d="M 4056 2131 
L 4056 0 
L 2931 0 
L 2931 347 
L 2931 1631 
Q 2931 2084 2911 2256 
Q 2891 2428 2841 2509 
Q 2775 2619 2662 2680 
Q 2550 2741 2406 2741 
Q 2056 2741 1856 2470 
Q 1656 2200 1656 1722 
L 1656 0 
L 538 0 
L 538 3500 
L 1656 3500 
L 1656 2988 
Q 1909 3294 2193 3439 
Q 2478 3584 2822 3584 
Q 3428 3584 3742 3212 
Q 4056 2841 4056 2131 
z
" transform="scale(0.015625)"/>
      <path id="DejaVuSans-Bold-4a" d="M 2919 594 
Q 2688 288 2409 144 
Q 2131 0 1766 0 
Q 1125 0 706 504 
Q 288 1009 288 1791 
Q 288 2575 706 3076 
Q 1125 3578 1766 3578 
Q 2131 3578 2409 3434 
Q 2688 3291 2919 2981 
L 2919 3500 
L 4044 3500 
L 4044 353 
Q 4044 -491 3511 -936 
Q 2978 -1381 1966 -1381 
Q 1638 -1381 1331 -1331 
Q 1025 -1281 716 -1178 
L 716 -306 
Q 1009 -475 1290 -558 
Q 1572 -641 1856 -641 
Q 2406 -641 2662 -400 
Q 2919 -159 2919 353 
L 2919 594 
z
M 2181 2772 
Q 1834 2772 1640 2515 
Q 1447 2259 1447 1791 
Q 1447 1309 1634 1061 
Q 1822 813 2181 813 
Q 2531 813 2725 1069 
Q 2919 1325 2919 1791 
Q 2919 2259 2725 2515 
Q 2531 2772 2181 2772 
z
" transform="scale(0.015625)"/>
      <path id="DejaVuSans-Bold-47" d="M 2919 2988 
L 2919 4863 
L 4044 4863 
L 4044 0 
L 2919 0 
L 2919 506 
Q 2688 197 2409 53 
Q 2131 -91 1766 -91 
Q 1119 -91 703 423 
Q 288 938 288 1747 
Q 288 2556 703 3070 
Q 1119 3584 1766 3584 
Q 2128 3584 2408 3439 
Q 2688 3294 2919 2988 
z
M 2181 722 
Q 2541 722 2730 984 
Q 2919 1247 2919 1747 
Q 2919 2247 2730 2509 
Q 2541 2772 2181 2772 
Q 1825 2772 1636 2509 
Q 1447 2247 1447 1747 
Q 1447 1247 1636 984 
Q 1825 722 2181 722 
z
" transform="scale(0.015625)"/>
      <path id="DejaVuSans-Bold-5c" d="M 78 3500 
L 1197 3500 
L 2138 1125 
L 2938 3500 
L 4056 3500 
L 2584 -331 
Q 2363 -916 2067 -1148 
Q 1772 -1381 1288 -1381 
L 641 -1381 
L 641 -647 
L 991 -647 
Q 1275 -647 1404 -556 
Q 1534 -466 1606 -231 
L 1638 -134 
L 78 3500 
z
" transform="scale(0.015625)"/>
      <path id="DejaVuSans-Bold-50" d="M 3781 2919 
Q 3994 3244 4286 3414 
Q 4578 3584 4928 3584 
Q 5531 3584 5847 3212 
Q 6163 2841 6163 2131 
L 6163 0 
L 5038 0 
L 5038 1825 
Q 5041 1866 5042 1909 
Q 5044 1953 5044 2034 
Q 5044 2406 4934 2573 
Q 4825 2741 4581 2741 
Q 4263 2741 4089 2478 
Q 3916 2216 3909 1719 
L 3909 0 
L 2784 0 
L 2784 1825 
Q 2784 2406 2684 2573 
Q 2584 2741 2328 2741 
Q 2006 2741 1831 2477 
Q 1656 2213 1656 1722 
L 1656 0 
L 531 0 
L 531 3500 
L 1656 3500 
L 1656 2988 
Q 1863 3284 2130 3434 
Q 2397 3584 2719 3584 
Q 3081 3584 3359 3409 
Q 3638 3234 3781 2919 
z
" transform="scale(0.015625)"/>
      <path id="DejaVuSans-Bold-46" d="M 3366 3391 
L 3366 2478 
Q 3138 2634 2908 2709 
Q 2678 2784 2431 2784 
Q 1963 2784 1702 2511 
Q 1441 2238 1441 1747 
Q 1441 1256 1702 982 
Q 1963 709 2431 709 
Q 2694 709 2930 787 
Q 3166 866 3366 1019 
L 3366 103 
Q 3103 6 2833 -42 
Q 2563 -91 2291 -91 
Q 1344 -91 809 395 
Q 275 881 275 1747 
Q 275 2613 809 3098 
Q 1344 3584 2291 3584 
Q 2566 3584 2833 3536 
Q 3100 3488 3366 3391 
z
" transform="scale(0.015625)"/>
      <path id="DejaVuSans-Bold-56" d="M 3272 3391 
L 3272 2541 
Q 2913 2691 2578 2766 
Q 2244 2841 1947 2841 
Q 1628 2841 1473 2761 
Q 1319 2681 1319 2516 
Q 1319 2381 1436 2309 
Q 1553 2238 1856 2203 
L 2053 2175 
Q 2913 2066 3209 1816 
Q 3506 1566 3506 1031 
Q 3506 472 3093 190 
Q 2681 -91 1863 -91 
Q 1516 -91 1145 -36 
Q 775 19 384 128 
L 384 978 
Q 719 816 1070 734 
Q 1422 653 1784 653 
Q 2113 653 2278 743 
Q 2444 834 2444 1013 
Q 2444 1163 2330 1236 
Q 2216 1309 1875 1350 
L 1678 1375 
Q 931 1469 631 1722 
Q 331 1975 331 2491 
Q 331 3047 712 3315 
Q 1094 3584 1881 3584 
Q 2191 3584 2531 3537 
Q 2872 3491 3272 3391 
z
" transform="scale(0.015625)"/>
     </defs>
     <use xlink:href="#DejaVuSans-Bold-34"/>
     <use xlink:href="#DejaVuSans-Bold-2f" transform="translate(85.015625 0)"/>
     <use xlink:href="#DejaVuSans-Bold-52" transform="translate(148.734375 0)"/>
     <use xlink:href="#DejaVuSans-Bold-35" transform="translate(217.4375 0)"/>
     <use xlink:href="#DejaVuSans-Bold-24" transform="translate(294.4375 0)"/>
     <use xlink:href="#DejaVuSans-Bold-3" transform="translate(371.828125 0)"/>
     <use xlink:href="#DejaVuSans-Bold-57" transform="translate(406.640625 0)"/>
     <use xlink:href="#DejaVuSans-Bold-55" transform="translate(454.4375 0)"/>
     <use xlink:href="#DejaVuSans-Bold-44" transform="translate(503.75 0)"/>
     <use xlink:href="#DejaVuSans-Bold-4c" transform="translate(571.234375 0)"/>
     <use xlink:href="#DejaVuSans-Bold-51" transform="translate(605.515625 0)"/>
     <use xlink:href="#DejaVuSans-Bold-4c" transform="translate(676.703125 0)"/>
     <use xlink:href="#DejaVuSans-Bold-51" transform="translate(710.984375 0)"/>
     <use xlink:href="#DejaVuSans-Bold-4a" transform="translate(782.171875 0)"/>
     <use xlink:href="#DejaVuSans-Bold-3" transform="translate(853.75 0)"/>
     <use xlink:href="#DejaVuSans-Bold-47" transform="translate(888.5625 0)"/>
     <use xlink:href="#DejaVuSans-Bold-5c" transform="translate(960.140625 0)"/>
     <use xlink:href="#DejaVuSans-Bold-51" transform="translate(1025.328125 0)"/>
     <use xlink:href="#DejaVuSans-Bold-44" transform="translate(1096.515625 0)"/>
     <use xlink:href="#DejaVuSans-Bold-50" transform="translate(1164 0)"/>
     <use xlink:href="#DejaVuSans-Bold-4c" transform="translate(1268.203125 0)"/>
     <use xlink:href="#DejaVuSans-Bold-46" transform="translate(1302.484375 0)"/>
     <use xlink:href="#DejaVuSans-Bold-56" transform="translate(1361.765625 0)"/>
    </g>
   </g>
   <g id="legend_1">
    <g id="line2d_96">
     <path d="M 629.766308 188.973109 
L 639.766308 188.973109 
L 649.766308 188.973109 
" style="fill: none; stroke: #4e79a7; stroke-width: 1.7; stroke-linecap: square"/>
     <g>
      <use xlink:href="#m95affe7134" x="639.766308" y="188.973109" style="fill: #4e79a7; stroke: #4e79a7"/>
     </g>
    </g>
    <g id="text_15">
     <!-- Training loss -->
     <g transform="translate(657.766308 192.473109) scale(0.1 -0.1)">
      <use xlink:href="#DejaVuSans-37"/>
      <use xlink:href="#DejaVuSans-55" transform="translate(46.375 0)"/>
      <use xlink:href="#DejaVuSans-44" transform="translate(87.484375 0)"/>
      <use xlink:href="#DejaVuSans-4c" transform="translate(148.765625 0)"/>
      <use xlink:href="#DejaVuSans-51" transform="translate(176.546875 0)"/>
      <use xlink:href="#DejaVuSans-4c" transform="translate(239.921875 0)"/>
      <use xlink:href="#DejaVuSans-51" transform="translate(267.703125 0)"/>
      <use xlink:href="#DejaVuSans-4a" transform="translate(331.078125 0)"/>
      <use xlink:href="#DejaVuSans-3" transform="translate(394.5625 0)"/>
      <use xlink:href="#DejaVuSans-4f" transform="translate(426.34375 0)"/>
      <use xlink:href="#DejaVuSans-52" transform="translate(454.125 0)"/>
      <use xlink:href="#DejaVuSans-56" transform="translate(515.3125 0)"/>
      <use xlink:href="#DejaVuSans-56" transform="translate(567.40625 0)"/>
     </g>
    </g>
    <g id="line2d_97">
     <path d="M 629.766308 203.973891 
L 639.766308 203.973891 
L 649.766308 203.973891 
" style="fill: none; stroke: #f28e2b; stroke-width: 2; stroke-linecap: square"/>
     <defs>
      <path id="mc98ccba772" d="M -0 4.242641 
L 4.242641 0 
L 0 -4.242641 
L -4.242641 -0 
z
" style="stroke: #f28e2b; stroke-linejoin: miter"/>
     </defs>
     <g>
      <use xlink:href="#mc98ccba772" x="639.766308" y="203.973891" style="fill: #f28e2b; stroke: #f28e2b; stroke-linejoin: miter"/>
     </g>
    </g>
    <g id="text_16">
     <!-- Dev loss -->
     <g transform="translate(657.766308 207.473891) scale(0.1 -0.1)">
      <defs>
       <path id="DejaVuSans-27" d="M 1259 4147 
L 1259 519 
L 2022 519 
Q 2988 519 3436 956 
Q 3884 1394 3884 2338 
Q 3884 3275 3436 3711 
Q 2988 4147 2022 4147 
L 1259 4147 
z
M 628 4666 
L 1925 4666 
Q 3281 4666 3915 4102 
Q 4550 3538 4550 2338 
Q 4550 1131 3912 565 
Q 3275 0 1925 0 
L 628 0 
L 628 4666 
z
" transform="scale(0.015625)"/>
       <path id="DejaVuSans-59" d="M 191 3500 
L 800 3500 
L 1894 563 
L 2988 3500 
L 3597 3500 
L 2284 0 
L 1503 0 
L 191 3500 
z
" transform="scale(0.015625)"/>
      </defs>
      <use xlink:href="#DejaVuSans-27"/>
      <use xlink:href="#DejaVuSans-48" transform="translate(77 0)"/>
      <use xlink:href="#DejaVuSans-59" transform="translate(138.53125 0)"/>
      <use xlink:href="#DejaVuSans-3" transform="translate(197.71875 0)"/>
      <use xlink:href="#DejaVuSans-4f" transform="translate(229.5 0)"/>
      <use xlink:href="#DejaVuSans-52" transform="translate(257.28125 0)"/>
      <use xlink:href="#DejaVuSans-56" transform="translate(318.46875 0)"/>
      <use xlink:href="#DejaVuSans-56" transform="translate(370.5625 0)"/>
     </g>
    </g>
   </g>
  </g>
  <g id="axes_2">
   <g id="matplotlib.axis_3">
    <g id="ytick_42">
     <g id="line2d_98">
      <defs>
       <path id="m218772a30f" d="M 0 0 
L 3.5 0 
" style="stroke: #000000; stroke-width: 0.8"/>
      </defs>
      <g>
       <use xlink:href="#m218772a30f" x="728.716308" y="370.913094" style="stroke: #000000; stroke-width: 0.8"/>
      </g>
     </g>
     <g id="text_17">
      <!-- 2.2 -->
      <g style="fill: #f28e2b" transform="translate(735.716308 374.711922) scale(0.1 -0.1)">
       <defs>
        <path id="DejaVuSans-11" d="M 684 794 
L 1344 794 
L 1344 0 
L 684 0 
L 684 794 
z
" transform="scale(0.015625)"/>
       </defs>
       <use xlink:href="#DejaVuSans-15"/>
       <use xlink:href="#DejaVuSans-11" transform="translate(63.625 0)"/>
       <use xlink:href="#DejaVuSans-15" transform="translate(95.40625 0)"/>
      </g>
     </g>
    </g>
    <g id="ytick_43">
     <g id="line2d_99">
      <g>
       <use xlink:href="#m218772a30f" x="728.716308" y="301.498037" style="stroke: #000000; stroke-width: 0.8"/>
      </g>
     </g>
     <g id="text_18">
      <!-- 2.3 -->
      <g style="fill: #f28e2b" transform="translate(735.716308 305.296866) scale(0.1 -0.1)">
       <use xlink:href="#DejaVuSans-15"/>
       <use xlink:href="#DejaVuSans-11" transform="translate(63.625 0)"/>
       <use xlink:href="#DejaVuSans-16" transform="translate(95.40625 0)"/>
      </g>
     </g>
    </g>
    <g id="ytick_44">
     <g id="line2d_100">
      <g>
       <use xlink:href="#m218772a30f" x="728.716308" y="232.082981" style="stroke: #000000; stroke-width: 0.8"/>
      </g>
     </g>
     <g id="text_19">
      <!-- 2.4 -->
      <g style="fill: #f28e2b" transform="translate(735.716308 235.881809) scale(0.1 -0.1)">
       <use xlink:href="#DejaVuSans-15"/>
       <use xlink:href="#DejaVuSans-11" transform="translate(63.625 0)"/>
       <use xlink:href="#DejaVuSans-17" transform="translate(95.40625 0)"/>
      </g>
     </g>
    </g>
    <g id="ytick_45">
     <g id="line2d_101">
      <g>
       <use xlink:href="#m218772a30f" x="728.716308" y="162.667925" style="stroke: #000000; stroke-width: 0.8"/>
      </g>
     </g>
     <g id="text_20">
      <!-- 2.5 -->
      <g style="fill: #f28e2b" transform="translate(735.716308 166.466753) scale(0.1 -0.1)">
       <use xlink:href="#DejaVuSans-15"/>
       <use xlink:href="#DejaVuSans-11" transform="translate(63.625 0)"/>
       <use xlink:href="#DejaVuSans-18" transform="translate(95.40625 0)"/>
      </g>
     </g>
    </g>
    <g id="ytick_46">
     <g id="line2d_102">
      <g>
       <use xlink:href="#m218772a30f" x="728.716308" y="93.252869" style="stroke: #000000; stroke-width: 0.8"/>
      </g>
     </g>
     <g id="text_21">
      <!-- 2.6 -->
      <g style="fill: #f28e2b" transform="translate(735.716308 97.051697) scale(0.1 -0.1)">
       <defs>
        <path id="DejaVuSans-19" d="M 2113 2584 
Q 1688 2584 1439 2293 
Q 1191 2003 1191 1497 
Q 1191 994 1439 701 
Q 1688 409 2113 409 
Q 2538 409 2786 701 
Q 3034 994 3034 1497 
Q 3034 2003 2786 2293 
Q 2538 2584 2113 2584 
z
M 3366 4563 
L 3366 3988 
Q 3128 4100 2886 4159 
Q 2644 4219 2406 4219 
Q 1781 4219 1451 3797 
Q 1122 3375 1075 2522 
Q 1259 2794 1537 2939 
Q 1816 3084 2150 3084 
Q 2853 3084 3261 2657 
Q 3669 2231 3669 1497 
Q 3669 778 3244 343 
Q 2819 -91 2113 -91 
Q 1303 -91 875 529 
Q 447 1150 447 2328 
Q 447 3434 972 4092 
Q 1497 4750 2381 4750 
Q 2619 4750 2861 4703 
Q 3103 4656 3366 4563 
z
" transform="scale(0.015625)"/>
       </defs>
       <use xlink:href="#DejaVuSans-15"/>
       <use xlink:href="#DejaVuSans-11" transform="translate(63.625 0)"/>
       <use xlink:href="#DejaVuSans-19" transform="translate(95.40625 0)"/>
      </g>
     </g>
    </g>
    <g id="ytick_47">
     <g id="line2d_103">
      <g>
       <use xlink:href="#m218772a30f" x="728.716308" y="23.837812" style="stroke: #000000; stroke-width: 0.8"/>
      </g>
     </g>
     <g id="text_22">
      <!-- 2.7 -->
      <g style="fill: #f28e2b" transform="translate(735.716308 27.636641) scale(0.1 -0.1)">
       <defs>
        <path id="DejaVuSans-1a" d="M 525 4666 
L 3525 4666 
L 3525 4397 
L 1831 0 
L 1172 0 
L 2766 4134 
L 525 4134 
L 525 4666 
z
" transform="scale(0.015625)"/>
       </defs>
       <use xlink:href="#DejaVuSans-15"/>
       <use xlink:href="#DejaVuSans-11" transform="translate(63.625 0)"/>
       <use xlink:href="#DejaVuSans-1a" transform="translate(95.40625 0)"/>
      </g>
     </g>
    </g>
    <g id="text_23">
     <!-- Dev loss -->
     <g style="fill: #f28e2b" transform="translate(763.977714 220.621547) rotate(-90) scale(0.11 -0.11)">
      <use xlink:href="#DejaVuSans-27"/>
      <use xlink:href="#DejaVuSans-48" transform="translate(77 0)"/>
      <use xlink:href="#DejaVuSans-59" transform="translate(138.53125 0)"/>
      <use xlink:href="#DejaVuSans-3" transform="translate(197.71875 0)"/>
      <use xlink:href="#DejaVuSans-4f" transform="translate(229.5 0)"/>
      <use xlink:href="#DejaVuSans-52" transform="translate(257.28125 0)"/>
      <use xlink:href="#DejaVuSans-56" transform="translate(318.46875 0)"/>
      <use xlink:href="#DejaVuSans-56" transform="translate(370.5625 0)"/>
     </g>
    </g>
   </g>
   <g id="line2d_104">
    <path d="M 282.764968 249.070166 
L 490.452526 152.677946 
L 698.140084 142.070823 
" clip-path="url(#pb9766e3c45)" style="fill: none; stroke: #f28e2b; stroke-width: 2; stroke-linecap: square"/>
    <g clip-path="url(#pb9766e3c45)">
     <use xlink:href="#mc98ccba772" x="282.764968" y="249.070166" style="fill: #f28e2b; stroke: #f28e2b; stroke-linejoin: miter"/>
     <use xlink:href="#mc98ccba772" x="490.452526" y="152.677946" style="fill: #f28e2b; stroke: #f28e2b; stroke-linejoin: miter"/>
     <use xlink:href="#mc98ccba772" x="698.140084" y="142.070823" style="fill: #f28e2b; stroke: #f28e2b; stroke-linejoin: miter"/>
    </g>
   </g>
   <g id="patch_5">
    <path d="M 56.039385 370.913094 
L 56.039385 23.837812 
" style="fill: none; stroke: #000000; stroke-width: 0.8; stroke-linejoin: miter; stroke-linecap: square"/>
   </g>
   <g id="patch_6">
    <path d="M 56.039385 370.913094 
L 728.716308 370.913094 
" style="fill: none; stroke: #000000; stroke-width: 0.8; stroke-linejoin: miter; stroke-linecap: square"/>
   </g>
  </g>
  <g id="text_24">
   <!-- Training used 144 rows for three epochs (54 optimizer steps). Behavioral dev performance, not loss, selected the checkpoint; the test split was not accessed during training. -->
   <g style="fill: #555555" transform="translate(7.2 430.388819) scale(0.08 -0.08)">
    <defs>
     <path id="DejaVuSans-58" d="M 544 1381 
L 544 3500 
L 1119 3500 
L 1119 1403 
Q 1119 906 1312 657 
Q 1506 409 1894 409 
Q 2359 409 2629 706 
Q 2900 1003 2900 1516 
L 2900 3500 
L 3475 3500 
L 3475 0 
L 2900 0 
L 2900 538 
Q 2691 219 2414 64 
Q 2138 -91 1772 -91 
Q 1169 -91 856 284 
Q 544 659 544 1381 
z
M 1991 3584 
L 1991 3584 
z
" transform="scale(0.015625)"/>
     <path id="DejaVuSans-47" d="M 2906 2969 
L 2906 4863 
L 3481 4863 
L 3481 0 
L 2906 0 
L 2906 525 
Q 2725 213 2448 61 
Q 2172 -91 1784 -91 
Q 1150 -91 751 415 
Q 353 922 353 1747 
Q 353 2572 751 3078 
Q 1150 3584 1784 3584 
Q 2172 3584 2448 3432 
Q 2725 3281 2906 2969 
z
M 947 1747 
Q 947 1113 1208 752 
Q 1469 391 1925 391 
Q 2381 391 2643 752 
Q 2906 1113 2906 1747 
Q 2906 2381 2643 2742 
Q 2381 3103 1925 3103 
Q 1469 3103 1208 2742 
Q 947 2381 947 1747 
z
" transform="scale(0.015625)"/>
     <path id="DejaVuSans-5a" d="M 269 3500 
L 844 3500 
L 1563 769 
L 2278 3500 
L 2956 3500 
L 3675 769 
L 4391 3500 
L 4966 3500 
L 4050 0 
L 3372 0 
L 2619 2869 
L 1863 0 
L 1184 0 
L 269 3500 
z
" transform="scale(0.015625)"/>
     <path id="DejaVuSans-49" d="M 2375 4863 
L 2375 4384 
L 1825 4384 
Q 1516 4384 1395 4259 
Q 1275 4134 1275 3809 
L 1275 3500 
L 2222 3500 
L 2222 3053 
L 1275 3053 
L 1275 0 
L 697 0 
L 697 3053 
L 147 3053 
L 147 3500 
L 697 3500 
L 697 3744 
Q 697 4328 969 4595 
Q 1241 4863 1831 4863 
L 2375 4863 
z
" transform="scale(0.015625)"/>
     <path id="DejaVuSans-4b" d="M 3513 2113 
L 3513 0 
L 2938 0 
L 2938 2094 
Q 2938 2591 2744 2837 
Q 2550 3084 2163 3084 
Q 1697 3084 1428 2787 
Q 1159 2491 1159 1978 
L 1159 0 
L 581 0 
L 581 4863 
L 1159 4863 
L 1159 2956 
Q 1366 3272 1645 3428 
Q 1925 3584 2291 3584 
Q 2894 3584 3203 3211 
Q 3513 2838 3513 2113 
z
" transform="scale(0.015625)"/>
     <path id="DejaVuSans-25" d="M 1259 2228 
L 1259 519 
L 2272 519 
Q 2781 519 3026 730 
Q 3272 941 3272 1375 
Q 3272 1813 3026 2020 
Q 2781 2228 2272 2228 
L 1259 2228 
z
M 1259 4147 
L 1259 2741 
L 2194 2741 
Q 2656 2741 2882 2914 
Q 3109 3088 3109 3444 
Q 3109 3797 2882 3972 
Q 2656 4147 2194 4147 
L 1259 4147 
z
M 628 4666 
L 2241 4666 
Q 2963 4666 3353 4366 
Q 3744 4066 3744 3513 
Q 3744 3084 3544 2831 
Q 3344 2578 2956 2516 
Q 3422 2416 3680 2098 
Q 3938 1781 3938 1306 
Q 3938 681 3513 340 
Q 3088 0 2303 0 
L 628 0 
L 628 4666 
z
" transform="scale(0.015625)"/>
     <path id="DejaVuSans-f" d="M 750 794 
L 1409 794 
L 1409 256 
L 897 -744 
L 494 -744 
L 750 256 
L 750 794 
z
" transform="scale(0.015625)"/>
     <path id="DejaVuSans-4e" d="M 581 4863 
L 1159 4863 
L 1159 1991 
L 2875 3500 
L 3609 3500 
L 1753 1863 
L 3688 0 
L 2938 0 
L 1159 1709 
L 1159 0 
L 581 0 
L 581 4863 
z
" transform="scale(0.015625)"/>
     <path id="DejaVuSans-1e" d="M 750 3309 
L 1409 3309 
L 1409 2516 
L 750 2516 
L 750 3309 
z
M 750 794 
L 1409 794 
L 1409 256 
L 897 -744 
L 494 -744 
L 750 256 
L 750 794 
z
" transform="scale(0.015625)"/>
    </defs>
    <use xlink:href="#DejaVuSans-37"/>
    <use xlink:href="#DejaVuSans-55" transform="translate(46.375 0)"/>
    <use xlink:href="#DejaVuSans-44" transform="translate(87.484375 0)"/>
    <use xlink:href="#DejaVuSans-4c" transform="translate(148.765625 0)"/>
    <use xlink:href="#DejaVuSans-51" transform="translate(176.546875 0)"/>
    <use xlink:href="#DejaVuSans-4c" transform="translate(239.921875 0)"/>
    <use xlink:href="#DejaVuSans-51" transform="translate(267.703125 0)"/>
    <use xlink:href="#DejaVuSans-4a" transform="translate(331.078125 0)"/>
    <use xlink:href="#DejaVuSans-3" transform="translate(394.5625 0)"/>
    <use xlink:href="#DejaVuSans-58" transform="translate(426.34375 0)"/>
    <use xlink:href="#DejaVuSans-56" transform="translate(489.71875 0)"/>
    <use xlink:href="#DejaVuSans-48" transform="translate(541.8125 0)"/>
    <use xlink:href="#DejaVuSans-47" transform="translate(603.34375 0)"/>
    <use xlink:href="#DejaVuSans-3" transform="translate(666.828125 0)"/>
    <use xlink:href="#DejaVuSans-14" transform="translate(698.609375 0)"/>
    <use xlink:href="#DejaVuSans-17" transform="translate(762.234375 0)"/>
    <use xlink:href="#DejaVuSans-17" transform="translate(825.859375 0)"/>
    <use xlink:href="#DejaVuSans-3" transform="translate(889.484375 0)"/>
    <use xlink:href="#DejaVuSans-55" transform="translate(921.265625 0)"/>
    <use xlink:href="#DejaVuSans-52" transform="translate(960.171875 0)"/>
    <use xlink:href="#DejaVuSans-5a" transform="translate(1021.359375 0)"/>
    <use xlink:href="#DejaVuSans-56" transform="translate(1103.140625 0)"/>
    <use xlink:href="#DejaVuSans-3" transform="translate(1155.234375 0)"/>
    <use xlink:href="#DejaVuSans-49" transform="translate(1187.015625 0)"/>
    <use xlink:href="#DejaVuSans-52" transform="translate(1222.21875 0)"/>
    <use xlink:href="#DejaVuSans-55" transform="translate(1283.40625 0)"/>
    <use xlink:href="#DejaVuSans-3" transform="translate(1324.515625 0)"/>
    <use xlink:href="#DejaVuSans-57" transform="translate(1356.296875 0)"/>
    <use xlink:href="#DejaVuSans-4b" transform="translate(1395.5 0)"/>
    <use xlink:href="#DejaVuSans-55" transform="translate(1458.875 0)"/>
    <use xlink:href="#DejaVuSans-48" transform="translate(1497.78125 0)"/>
    <use xlink:href="#DejaVuSans-48" transform="translate(1559.3125 0)"/>
    <use xlink:href="#DejaVuSans-3" transform="translate(1620.84375 0)"/>
    <use xlink:href="#DejaVuSans-48" transform="translate(1652.625 0)"/>
    <use xlink:href="#DejaVuSans-53" transform="translate(1714.15625 0)"/>
    <use xlink:href="#DejaVuSans-52" transform="translate(1777.640625 0)"/>
    <use xlink:href="#DejaVuSans-46" transform="translate(1838.828125 0)"/>
    <use xlink:href="#DejaVuSans-4b" transform="translate(1893.8125 0)"/>
    <use xlink:href="#DejaVuSans-56" transform="translate(1957.1875 0)"/>
    <use xlink:href="#DejaVuSans-3" transform="translate(2009.28125 0)"/>
    <use xlink:href="#DejaVuSans-b" transform="translate(2041.0625 0)"/>
    <use xlink:href="#DejaVuSans-18" transform="translate(2080.078125 0)"/>
    <use xlink:href="#DejaVuSans-17" transform="translate(2143.703125 0)"/>
    <use xlink:href="#DejaVuSans-3" transform="translate(2207.328125 0)"/>
    <use xlink:href="#DejaVuSans-52" transform="translate(2239.109375 0)"/>
    <use xlink:href="#DejaVuSans-53" transform="translate(2300.296875 0)"/>
    <use xlink:href="#DejaVuSans-57" transform="translate(2363.78125 0)"/>
    <use xlink:href="#DejaVuSans-4c" transform="translate(2402.984375 0)"/>
    <use xlink:href="#DejaVuSans-50" transform="translate(2430.765625 0)"/>
    <use xlink:href="#DejaVuSans-4c" transform="translate(2528.171875 0)"/>
    <use xlink:href="#DejaVuSans-5d" transform="translate(2555.953125 0)"/>
    <use xlink:href="#DejaVuSans-48" transform="translate(2608.4375 0)"/>
    <use xlink:href="#DejaVuSans-55" transform="translate(2669.96875 0)"/>
    <use xlink:href="#DejaVuSans-3" transform="translate(2711.078125 0)"/>
    <use xlink:href="#DejaVuSans-56" transform="translate(2742.859375 0)"/>
    <use xlink:href="#DejaVuSans-57" transform="translate(2794.953125 0)"/>
    <use xlink:href="#DejaVuSans-48" transform="translate(2834.15625 0)"/>
    <use xlink:href="#DejaVuSans-53" transform="translate(2895.6875 0)"/>
    <use xlink:href="#DejaVuSans-56" transform="translate(2959.171875 0)"/>
    <use xlink:href="#DejaVuSans-c" transform="translate(3011.265625 0)"/>
    <use xlink:href="#DejaVuSans-11" transform="translate(3050.28125 0)"/>
    <use xlink:href="#DejaVuSans-3" transform="translate(3082.0625 0)"/>
    <use xlink:href="#DejaVuSans-25" transform="translate(3113.84375 0)"/>
    <use xlink:href="#DejaVuSans-48" transform="translate(3182.453125 0)"/>
    <use xlink:href="#DejaVuSans-4b" transform="translate(3243.984375 0)"/>
    <use xlink:href="#DejaVuSans-44" transform="translate(3307.359375 0)"/>
    <use xlink:href="#DejaVuSans-59" transform="translate(3368.640625 0)"/>
    <use xlink:href="#DejaVuSans-4c" transform="translate(3427.828125 0)"/>
    <use xlink:href="#DejaVuSans-52" transform="translate(3455.609375 0)"/>
    <use xlink:href="#DejaVuSans-55" transform="translate(3516.796875 0)"/>
    <use xlink:href="#DejaVuSans-44" transform="translate(3557.90625 0)"/>
    <use xlink:href="#DejaVuSans-4f" transform="translate(3619.1875 0)"/>
    <use xlink:href="#DejaVuSans-3" transform="translate(3646.96875 0)"/>
    <use xlink:href="#DejaVuSans-47" transform="translate(3678.75 0)"/>
    <use xlink:href="#DejaVuSans-48" transform="translate(3742.234375 0)"/>
    <use xlink:href="#DejaVuSans-59" transform="translate(3803.765625 0)"/>
    <use xlink:href="#DejaVuSans-3" transform="translate(3862.953125 0)"/>
    <use xlink:href="#DejaVuSans-53" transform="translate(3894.734375 0)"/>
    <use xlink:href="#DejaVuSans-48" transform="translate(3958.21875 0)"/>
    <use xlink:href="#DejaVuSans-55" transform="translate(4019.75 0)"/>
    <use xlink:href="#DejaVuSans-49" transform="translate(4060.859375 0)"/>
    <use xlink:href="#DejaVuSans-52" transform="translate(4096.0625 0)"/>
    <use xlink:href="#DejaVuSans-55" transform="translate(4157.25 0)"/>
    <use xlink:href="#DejaVuSans-50" transform="translate(4196.609375 0)"/>
    <use xlink:href="#DejaVuSans-44" transform="translate(4294.015625 0)"/>
    <use xlink:href="#DejaVuSans-51" transform="translate(4355.296875 0)"/>
    <use xlink:href="#DejaVuSans-46" transform="translate(4418.671875 0)"/>
    <use xlink:href="#DejaVuSans-48" transform="translate(4473.65625 0)"/>
    <use xlink:href="#DejaVuSans-f" transform="translate(4535.1875 0)"/>
    <use xlink:href="#DejaVuSans-3" transform="translate(4566.96875 0)"/>
    <use xlink:href="#DejaVuSans-51" transform="translate(4598.75 0)"/>
    <use xlink:href="#DejaVuSans-52" transform="translate(4662.125 0)"/>
    <use xlink:href="#DejaVuSans-57" transform="translate(4723.3125 0)"/>
    <use xlink:href="#DejaVuSans-3" transform="translate(4762.515625 0)"/>
    <use xlink:href="#DejaVuSans-4f" transform="translate(4794.296875 0)"/>
    <use xlink:href="#DejaVuSans-52" transform="translate(4822.078125 0)"/>
    <use xlink:href="#DejaVuSans-56" transform="translate(4883.265625 0)"/>
    <use xlink:href="#DejaVuSans-56" transform="translate(4935.359375 0)"/>
    <use xlink:href="#DejaVuSans-f" transform="translate(4987.453125 0)"/>
    <use xlink:href="#DejaVuSans-3" transform="translate(5019.234375 0)"/>
    <use xlink:href="#DejaVuSans-56" transform="translate(5051.015625 0)"/>
    <use xlink:href="#DejaVuSans-48" transform="translate(5103.109375 0)"/>
    <use xlink:href="#DejaVuSans-4f" transform="translate(5164.640625 0)"/>
    <use xlink:href="#DejaVuSans-48" transform="translate(5192.421875 0)"/>
    <use xlink:href="#DejaVuSans-46" transform="translate(5253.953125 0)"/>
    <use xlink:href="#DejaVuSans-57" transform="translate(5308.9375 0)"/>
    <use xlink:href="#DejaVuSans-48" transform="translate(5348.140625 0)"/>
    <use xlink:href="#DejaVuSans-47" transform="translate(5409.671875 0)"/>
    <use xlink:href="#DejaVuSans-3" transform="translate(5473.15625 0)"/>
    <use xlink:href="#DejaVuSans-57" transform="translate(5504.9375 0)"/>
    <use xlink:href="#DejaVuSans-4b" transform="translate(5544.140625 0)"/>
    <use xlink:href="#DejaVuSans-48" transform="translate(5607.515625 0)"/>
    <use xlink:href="#DejaVuSans-3" transform="translate(5669.046875 0)"/>
    <use xlink:href="#DejaVuSans-46" transform="translate(5700.828125 0)"/>
    <use xlink:href="#DejaVuSans-4b" transform="translate(5755.8125 0)"/>
    <use xlink:href="#DejaVuSans-48" transform="translate(5819.1875 0)"/>
    <use xlink:href="#DejaVuSans-46" transform="translate(5880.71875 0)"/>
    <use xlink:href="#DejaVuSans-4e" transform="translate(5935.703125 0)"/>
    <use xlink:href="#DejaVuSans-53" transform="translate(5993.609375 0)"/>
    <use xlink:href="#DejaVuSans-52" transform="translate(6057.09375 0)"/>
    <use xlink:href="#DejaVuSans-4c" transform="translate(6118.28125 0)"/>
    <use xlink:href="#DejaVuSans-51" transform="translate(6146.0625 0)"/>
    <use xlink:href="#DejaVuSans-57" transform="translate(6209.4375 0)"/>
    <use xlink:href="#DejaVuSans-1e" transform="translate(6248.640625 0)"/>
    <use xlink:href="#DejaVuSans-3" transform="translate(6282.328125 0)"/>
    <use xlink:href="#DejaVuSans-57" transform="translate(6314.109375 0)"/>
    <use xlink:href="#DejaVuSans-4b" transform="translate(6353.3125 0)"/>
    <use xlink:href="#DejaVuSans-48" transform="translate(6416.6875 0)"/>
    <use xlink:href="#DejaVuSans-3" transform="translate(6478.21875 0)"/>
    <use xlink:href="#DejaVuSans-57" transform="translate(6510 0)"/>
    <use xlink:href="#DejaVuSans-48" transform="translate(6549.203125 0)"/>
    <use xlink:href="#DejaVuSans-56" transform="translate(6610.734375 0)"/>
    <use xlink:href="#DejaVuSans-57" transform="translate(6662.828125 0)"/>
    <use xlink:href="#DejaVuSans-3" transform="translate(6702.03125 0)"/>
    <use xlink:href="#DejaVuSans-56" transform="translate(6733.8125 0)"/>
    <use xlink:href="#DejaVuSans-53" transform="translate(6785.90625 0)"/>
    <use xlink:href="#DejaVuSans-4f" transform="translate(6849.390625 0)"/>
    <use xlink:href="#DejaVuSans-4c" transform="translate(6877.171875 0)"/>
    <use xlink:href="#DejaVuSans-57" transform="translate(6904.953125 0)"/>
    <use xlink:href="#DejaVuSans-3" transform="translate(6944.15625 0)"/>
    <use xlink:href="#DejaVuSans-5a" transform="translate(6975.9375 0)"/>
    <use xlink:href="#DejaVuSans-44" transform="translate(7057.71875 0)"/>
    <use xlink:href="#DejaVuSans-56" transform="translate(7119 0)"/>
    <use xlink:href="#DejaVuSans-3" transform="translate(7171.09375 0)"/>
    <use xlink:href="#DejaVuSans-51" transform="translate(7202.875 0)"/>
    <use xlink:href="#DejaVuSans-52" transform="translate(7266.25 0)"/>
    <use xlink:href="#DejaVuSans-57" transform="translate(7327.4375 0)"/>
    <use xlink:href="#DejaVuSans-3" transform="translate(7366.640625 0)"/>
    <use xlink:href="#DejaVuSans-44" transform="translate(7398.421875 0)"/>
    <use xlink:href="#DejaVuSans-46" transform="translate(7459.703125 0)"/>
    <use xlink:href="#DejaVuSans-46" transform="translate(7514.6875 0)"/>
    <use xlink:href="#DejaVuSans-48" transform="translate(7569.671875 0)"/>
    <use xlink:href="#DejaVuSans-56" transform="translate(7631.203125 0)"/>
    <use xlink:href="#DejaVuSans-56" transform="translate(7683.296875 0)"/>
    <use xlink:href="#DejaVuSans-48" transform="translate(7735.390625 0)"/>
    <use xlink:href="#DejaVuSans-47" transform="translate(7796.921875 0)"/>
    <use xlink:href="#DejaVuSans-3" transform="translate(7860.40625 0)"/>
    <use xlink:href="#DejaVuSans-47" transform="translate(7892.1875 0)"/>
    <use xlink:href="#DejaVuSans-58" transform="translate(7955.671875 0)"/>
    <use xlink:href="#DejaVuSans-55" transform="translate(8019.046875 0)"/>
    <use xlink:href="#DejaVuSans-4c" transform="translate(8060.15625 0)"/>
    <use xlink:href="#DejaVuSans-51" transform="translate(8087.9375 0)"/>
    <use xlink:href="#DejaVuSans-4a" transform="translate(8151.3125 0)"/>
    <use xlink:href="#DejaVuSans-3" transform="translate(8214.796875 0)"/>
    <use xlink:href="#DejaVuSans-57" transform="translate(8246.578125 0)"/>
    <use xlink:href="#DejaVuSans-55" transform="translate(8285.78125 0)"/>
    <use xlink:href="#DejaVuSans-44" transform="translate(8326.890625 0)"/>
    <use xlink:href="#DejaVuSans-4c" transform="translate(8388.171875 0)"/>
    <use xlink:href="#DejaVuSans-51" transform="translate(8415.953125 0)"/>
    <use xlink:href="#DejaVuSans-4c" transform="translate(8479.328125 0)"/>
    <use xlink:href="#DejaVuSans-51" transform="translate(8507.109375 0)"/>
    <use xlink:href="#DejaVuSans-4a" transform="translate(8570.484375 0)"/>
    <use xlink:href="#DejaVuSans-11" transform="translate(8633.96875 0)"/>
   </g>
  </g>
 </g>
 <defs>
  <clipPath id="pb9766e3c45">
   <rect x="56.039385" y="23.837812" width="672.676923" height="347.075281"/>
  </clipPath>
 </defs>
</svg>
